<svg width="10" height="10" viewBox="0 0 10 10" fill="none" xmlns="http://www.w3.org/2000/svg">
<g clip-path="url(#clip0_472_831)">
<path d="M7.08366 8.75V7.91667C7.08366 7.47464 6.90806 7.05072 6.5955 6.73816C6.28294 6.4256 5.85902 6.25 5.41699 6.25H2.08366C1.64163 6.25 1.21771 6.4256 0.905148 6.73816C0.592587 7.05072 0.416992 7.47464 0.416992 7.91667V8.75" stroke="#F2994A" stroke-linecap="round" stroke-linejoin="round"/>
<path d="M3.74967 4.58333C4.67015 4.58333 5.41634 3.83714 5.41634 2.91667C5.41634 1.99619 4.67015 1.25 3.74967 1.25C2.8292 1.25 2.08301 1.99619 2.08301 2.91667C2.08301 3.83714 2.8292 4.58333 3.74967 4.58333Z" stroke="#F2994A" stroke-linecap="round" stroke-linejoin="round"/>
<path d="M9.58301 8.75003V7.9167C9.58273 7.54742 9.45982 7.18869 9.23358 6.89683C9.00733 6.60497 8.69056 6.39652 8.33301 6.3042" stroke="#F2994A" stroke-linecap="round" stroke-linejoin="round"/>
<path d="M6.66699 1.3042C7.0255 1.39599 7.34326 1.60449 7.57018 1.89683C7.79709 2.18917 7.92026 2.54871 7.92026 2.91878C7.92026 3.28885 7.79709 3.6484 7.57018 3.94074C7.34326 4.23307 7.0255 4.44157 6.66699 4.53337" stroke="#F2994A" stroke-linecap="round" stroke-linejoin="round"/>
</g>
<defs>
<clipPath id="clip0_472_831">
<rect width="10" height="10" fill="white"/>
</clipPath>
</defs>
</svg>
