<svg width="28" height="28" viewBox="0 0 28 28" fill="none" xmlns="http://www.w3.org/2000/svg">
<path d="M14.0001 0.679932C6.57731 0.679932 0.560059 5.82132 0.560059 12.1633C0.560059 16.2636 3.07569 19.8614 6.85981 21.893C6.65392 22.6624 5.53689 26.8426 5.49237 27.1711C5.49237 27.1711 5.46566 27.4177 5.61308 27.5119C5.76058 27.606 5.93396 27.5329 5.93396 27.5329C6.35681 27.4689 10.8374 24.0583 11.6129 23.4661C12.3877 23.585 13.1854 23.6468 14.0001 23.6468C21.4228 23.6468 27.4401 18.5056 27.4401 12.1633C27.4401 5.82132 21.4228 0.679932 14.0001 0.679932Z" fill="#381F1F"/>
<path fill-rule="evenodd" clip-rule="evenodd" d="M8.04874 15.3999C7.67989 15.3999 7.37995 15.1212 7.37995 14.7786V10.9139H6.33644C5.97454 10.9139 5.68018 10.628 5.68018 10.2768C5.68018 9.92567 5.97462 9.63989 6.33644 9.63989H9.76105C10.1229 9.63989 10.4173 9.92567 10.4173 10.2768C10.4173 10.628 10.1229 10.9139 9.76105 10.9139H8.71754V14.7786C8.71754 15.1212 8.41759 15.3999 8.04874 15.3999ZM13.913 15.3914C13.6341 15.3914 13.4208 15.2813 13.3565 15.1041L13.0253 14.2608L10.986 14.2607L10.6547 15.1045C10.5905 15.2814 10.3773 15.3914 10.0985 15.3914C9.95174 15.3916 9.80669 15.3609 9.67331 15.3016C9.48892 15.2189 9.31171 14.9914 9.51479 14.3779L11.1145 10.2821C11.2272 9.97056 11.5695 9.64962 12.0051 9.63996C12.4419 9.64955 12.7842 9.97056 12.8972 10.2827L14.4962 14.3767C14.6997 14.9916 14.5225 15.2193 14.3381 15.3017C14.2047 15.3609 14.0597 15.3915 13.913 15.3914ZM12.0056 11.2626L12.6736 13.1085H11.3377L12.0056 11.2626ZM15.5725 15.305C15.219 15.305 14.9316 15.0374 14.9316 14.7087V10.2904C14.9316 9.93166 15.2378 9.63989 15.6143 9.63989C15.9907 9.63989 16.297 9.93166 16.297 10.2904V14.1123H17.7181C18.0716 14.1123 18.3591 14.3799 18.3591 14.7087C18.3591 15.0374 18.0716 15.305 17.7181 15.305H15.5725ZM18.6192 14.7409C18.6192 15.0997 18.9191 15.3914 19.288 15.3914C19.4653 15.3912 19.6354 15.3225 19.7608 15.2005C19.8862 15.0785 19.9568 14.9131 19.957 14.7405V13.3212L20.1891 13.0954L21.7575 15.1169C21.8196 15.1976 21.9002 15.263 21.993 15.3079C22.0857 15.3528 22.188 15.3759 22.2917 15.3755C22.437 15.3758 22.5783 15.3297 22.694 15.2441C22.7642 15.1929 22.8234 15.1286 22.8679 15.055C22.9124 14.9813 22.9415 14.8998 22.9534 14.8152C22.966 14.7305 22.961 14.6444 22.9389 14.5617C22.9169 14.4789 22.8782 14.4013 22.825 14.3332L21.1788 12.2118L22.7029 10.7295C22.8076 10.6275 22.8602 10.4869 22.8505 10.3334C22.8408 10.1814 22.771 10.0349 22.6538 9.92102C22.5282 9.79895 22.3606 9.7289 22.1936 9.7289C22.0505 9.7289 21.9186 9.78028 21.8227 9.87366L19.9568 11.6887V10.2904C19.9568 9.93166 19.6568 9.63989 19.288 9.63989C18.9191 9.63989 18.6192 9.93166 18.6192 10.2904V14.7409Z" fill="#FFE812"/>
</svg>
