<svg width="170" height="144" viewBox="0 0 170 144" fill="none" xmlns="http://www.w3.org/2000/svg">
<g filter="url(#filter0_d_156_2173)">
<path d="M113.17 34.3771C109.398 30.628 103.265 30.6102 99.4935 34.3593L79.142 54.5895L69.1881 44.7435C65.4068 40.9846 59.2757 40.9846 55.4941 44.7435C51.7129 48.5024 51.7129 54.5967 55.4941 58.3557L71.5201 74.2864C71.7397 74.5582 71.9763 74.8205 72.2299 75.0726C74.181 77.0121 76.7642 77.9532 79.3253 77.8906C81.7477 77.8493 84.157 76.9099 86.0052 75.0726C86.2591 74.8203 86.496 74.5574 86.7159 74.2853L113.187 47.9716C116.959 44.2225 116.941 38.1262 113.17 34.3771Z" fill="white"/>
<path d="M70.4563 76.8357C72.9107 79.2758 76.1625 80.4595 79.3777 80.3833C82.4207 80.329 85.4548 79.1459 87.7788 76.8357H87.7791C88.0625 76.5537 88.3297 76.2609 88.5806 75.9578L114.961 49.7347C119.718 45.0059 119.688 37.331 114.943 32.6142C110.198 27.8974 102.477 27.8677 97.7199 32.5964L79.1375 51.0681L70.9616 42.9806C70.9608 42.9797 70.9599 42.9787 70.9588 42.9778C66.1977 38.248 58.4808 38.2489 53.7205 42.9806C48.9597 47.7132 48.9597 55.3864 53.7205 60.1188L69.6557 75.9589C69.9059 76.2615 70.1729 76.554 70.4563 76.8357Z" stroke="white" stroke-width="18"/>
</g>
<path d="M56.1614 44.7142C52.3801 48.4731 52.3801 54.5677 56.1614 58.3264L72.9786 75.0436C76.7601 78.8023 82.8909 78.8023 86.6725 75.0436C90.454 71.2846 90.454 65.19 86.6725 61.4313C86.6725 61.4313 85.7116 60.5149 85.1834 61.3025C84.6553 62.0901 82.1867 65.5208 82.1867 65.5208C80.254 67.9525 76.9089 66.5527 76.0285 65.7651C74.532 64.7149 74.532 61.915 76.0285 59.3774C77.5251 56.8399 79.8137 54.5646 79.8137 54.5646L69.8553 44.7142C66.074 40.9553 59.9429 40.9553 56.1614 44.7142Z" fill="url(#paint0_radial_156_2173)"/>
<path d="M88.3414 73.1071C90.5046 69.3747 89.9812 64.5243 86.7707 61.3332L86.7688 61.3312L86.6723 61.431C86.7688 61.3312 86.7688 61.3312 86.7688 61.3312L86.7685 61.331L86.7682 61.3307L86.7674 61.3299L86.7649 61.3274L86.7621 61.3249C86.7601 61.3232 86.7579 61.3213 86.7554 61.3188C86.7473 61.3116 86.7359 61.3011 86.7211 61.2886C86.6918 61.2634 86.6498 61.2285 86.5976 61.1897C86.4942 61.1121 86.3477 61.0154 86.1807 60.944C86.0149 60.8733 85.8176 60.8232 85.6178 60.8534C85.4115 60.8844 85.2192 60.9988 85.0671 61.2254C84.8046 61.6171 84.0568 62.6696 83.3729 63.6267C83.0315 64.1046 82.7066 64.5581 82.4669 64.8919C82.3471 65.0589 82.2484 65.1958 82.1801 65.2914L82.1007 65.4013L82.0801 65.4301L82.0748 65.4373C81.1473 66.6025 79.8838 66.853 78.7294 66.7125C77.5673 66.5712 76.5384 66.0352 76.1215 65.662L76.1153 65.6565L76.1086 65.6518C75.4108 65.1623 75.0452 64.2517 75.0452 63.1289C75.0452 62.0086 75.4108 60.6982 76.1485 59.4472C76.8909 58.1884 77.8315 56.9922 78.5881 56.109C78.966 55.668 79.2974 55.3059 79.5343 55.0544C79.6527 54.9286 79.7472 54.8303 79.8121 54.7638C79.8447 54.7305 79.8698 54.705 79.8865 54.6879L79.9058 54.6688L79.9105 54.664L79.9116 54.6629L79.9119 54.6627L80.0108 54.5643L80.0064 54.5599L100.259 34.4279C103.976 30.7332 110.021 30.7503 113.738 34.4457C117.455 38.141 117.473 44.1496 113.756 47.8443L88.3414 73.1071Z" fill="url(#paint1_radial_156_2173)"/>
<path d="M86.7688 61.3312L86.7707 61.3332C89.9812 64.5243 90.5046 69.3747 88.3414 73.1071L113.756 47.8443C117.473 44.1496 117.455 38.141 113.738 34.4457C110.021 30.7503 103.976 30.7332 100.259 34.4279L80.0064 54.5599L80.0108 54.5643L79.9119 54.6627L79.9116 54.6629L79.9105 54.664L79.9058 54.6688L79.8865 54.6879C79.8698 54.705 79.8447 54.7305 79.8121 54.7638C79.7472 54.8303 79.6527 54.9286 79.5343 55.0544C79.2974 55.3059 78.966 55.668 78.5881 56.109C77.8315 56.9922 76.8909 58.1884 76.1485 59.4472C75.4108 60.6982 75.0452 62.0086 75.0452 63.1289C75.0452 64.2517 75.4108 65.1623 76.1086 65.6518L76.1153 65.6565L76.1215 65.662C76.5384 66.0352 77.5673 66.5712 78.7294 66.7125C79.8838 66.853 81.1473 66.6025 82.0748 65.4373L82.0801 65.4301L82.1007 65.4013L82.1801 65.2914C82.2484 65.1958 82.3471 65.0589 82.4669 64.8919C82.7066 64.5581 83.0315 64.1046 83.3729 63.6267C84.0568 62.6696 84.8046 61.6171 85.0671 61.2254C85.2192 60.9988 85.4115 60.8844 85.6178 60.8534C85.8176 60.8232 86.0149 60.8733 86.1807 60.944C86.3477 61.0154 86.4942 61.1121 86.5976 61.1897C86.6498 61.2285 86.6918 61.2634 86.7211 61.2886C86.7359 61.3011 86.7473 61.3116 86.7554 61.3188C86.7579 61.3213 86.7601 61.3232 86.7621 61.3249L86.7649 61.3274L86.7674 61.3299L86.7682 61.3307L86.7685 61.331L86.7688 61.3312ZM86.7688 61.3312L86.6723 61.431C86.7688 61.3313 86.7688 61.3312 86.7688 61.3312Z" stroke="#FFCE70"/>
<g filter="url(#filter1_d_156_2173)">
<path d="M13.6021 123.469V115.881C13.6021 110.81 16.5985 108.009 21.5926 108.009C23.5546 108.009 25.3382 108.505 26.6937 109.463C28.0137 108.505 29.7617 108.009 31.8663 108.009C36.4324 108.009 39.8569 110.633 39.8569 115.881V123.469C39.8569 125.171 38.7154 126.27 36.9674 126.27C35.2552 126.27 34.1493 125.171 34.1493 123.469V116.732C34.1493 115.136 33.6143 112.796 31.8663 112.796C30.0827 112.796 29.5833 115.136 29.5833 116.732V123.469C29.5833 125.171 28.4775 126.27 26.7651 126.27C24.9815 126.27 23.8756 125.171 23.8756 123.469V116.732C23.8756 115.136 23.3405 112.796 21.5926 112.796C19.809 112.796 19.3096 115.136 19.3096 116.732V123.469C19.3096 125.171 18.2038 126.27 16.4915 126.27C14.7436 126.27 13.6021 125.171 13.6021 123.469ZM56.3162 119.143H48.4684C48.9321 120.774 50.1806 121.661 51.7856 121.661H57.6004C58.9916 121.661 59.8834 122.583 59.8834 124.001C59.8834 125.384 58.9916 126.27 57.6004 126.27H51.7856C46.1497 126.27 42.3684 123.044 42.3684 117.37C42.3684 111.767 46.1497 108.009 51.7856 108.009C57.3864 108.009 60.3828 111.448 60.3828 115.81C60.3828 117.937 58.7063 119.143 56.3162 119.143ZM48.3257 115.597H54.6396C54.3186 113.86 53.2484 112.796 51.4291 112.796C49.6812 112.796 48.611 113.824 48.3257 115.597ZM75.8244 119.143H67.9766C68.4403 120.774 69.6888 121.661 71.2938 121.661H77.1086C78.4998 121.661 79.3916 122.583 79.3916 124.001C79.3916 125.384 78.4998 126.27 77.1086 126.27H71.2938C65.6579 126.27 61.8766 123.044 61.8766 117.37C61.8766 111.767 65.6579 108.009 71.2938 108.009C76.8946 108.009 79.891 111.448 79.891 115.81C79.891 117.937 78.2144 119.143 75.8244 119.143ZM67.8339 115.597H74.1478C73.8268 113.86 72.7566 112.796 70.9373 112.796C69.1894 112.796 68.1192 113.824 67.8339 115.597ZM88.4593 104.25V108.541H93.9885C95.3797 108.541 96.2715 109.463 96.2715 110.881C96.2715 112.264 95.3797 113.15 93.9885 113.15H88.4593V116.484C88.4593 120.349 90.0646 121.661 91.9909 121.661H95.0943C96.4855 121.661 97.3773 122.583 97.3773 124.001C97.3773 125.384 96.4855 126.27 95.0943 126.27H91.9909C85.9266 126.27 82.7518 123.398 82.7518 116.59V104.25C82.7518 102.548 83.8933 101.449 85.6412 101.449C87.3535 101.449 88.4593 102.548 88.4593 104.25ZM108.774 123.469V115.881C108.774 110.81 111.771 108.009 116.765 108.009C118.727 108.009 120.51 108.505 121.866 109.463C123.186 108.505 124.934 108.009 127.038 108.009C131.604 108.009 135.029 110.633 135.029 115.881V123.469C135.029 125.171 133.888 126.27 132.14 126.27C130.427 126.27 129.321 125.171 129.321 123.469V116.732C129.321 115.136 128.786 112.796 127.038 112.796C125.255 112.796 124.755 115.136 124.755 116.732V123.469C124.755 125.171 123.65 126.27 121.937 126.27C120.154 126.27 119.048 125.171 119.048 123.469V116.732C119.048 115.136 118.513 112.796 116.765 112.796C114.981 112.796 114.482 115.136 114.482 116.732V123.469C114.482 125.171 113.376 126.27 111.664 126.27C109.916 126.27 108.774 125.171 108.774 123.469ZM151.488 119.143H143.64C144.104 120.774 145.353 121.661 146.958 121.661H152.773C154.164 121.661 155.056 122.583 155.056 124.001C155.056 125.384 154.164 126.27 152.773 126.27H146.958C141.322 126.27 137.541 123.044 137.541 117.37C137.541 111.767 141.322 108.009 146.958 108.009C152.559 108.009 155.555 111.448 155.555 115.81C155.555 117.937 153.878 119.143 151.488 119.143ZM143.498 115.597H149.812C149.491 113.86 148.421 112.796 146.601 112.796C144.853 112.796 143.783 113.824 143.498 115.597Z" fill="#515D62"/>
<mask id="mask0_156_2173" style="mask-type:luminance" maskUnits="userSpaceOnUse" x="8" y="96" width="153" height="36">
<path d="M160.664 96.3513H8.5V131.257H160.664V96.3513Z" fill="white"/>
<path d="M13.6021 123.469V115.881C13.6021 110.81 16.5985 108.009 21.5926 108.009C23.5546 108.009 25.3382 108.505 26.6937 109.463C28.0137 108.505 29.7617 108.009 31.8663 108.009C36.4324 108.009 39.8569 110.633 39.8569 115.881V123.469C39.8569 125.171 38.7154 126.27 36.9674 126.27C35.2552 126.27 34.1493 125.171 34.1493 123.469V116.732C34.1493 115.136 33.6143 112.796 31.8663 112.796C30.0827 112.796 29.5833 115.136 29.5833 116.732V123.469C29.5833 125.171 28.4775 126.27 26.7651 126.27C24.9815 126.27 23.8756 125.171 23.8756 123.469V116.732C23.8756 115.136 23.3405 112.796 21.5926 112.796C19.809 112.796 19.3096 115.136 19.3096 116.732V123.469C19.3096 125.171 18.2038 126.27 16.4915 126.27C14.7436 126.27 13.6021 125.171 13.6021 123.469ZM56.3162 119.143H48.4684C48.9321 120.774 50.1806 121.661 51.7856 121.661H57.6004C58.9916 121.661 59.8834 122.583 59.8834 124.001C59.8834 125.384 58.9916 126.27 57.6004 126.27H51.7856C46.1497 126.27 42.3684 123.044 42.3684 117.37C42.3684 111.767 46.1497 108.009 51.7856 108.009C57.3864 108.009 60.3828 111.448 60.3828 115.81C60.3828 117.937 58.7063 119.143 56.3162 119.143ZM48.3257 115.597H54.6396C54.3186 113.86 53.2484 112.796 51.4291 112.796C49.6812 112.796 48.611 113.824 48.3257 115.597ZM75.8244 119.143H67.9766C68.4403 120.774 69.6888 121.661 71.2938 121.661H77.1086C78.4998 121.661 79.3916 122.583 79.3916 124.001C79.3916 125.384 78.4998 126.27 77.1086 126.27H71.2938C65.6579 126.27 61.8766 123.044 61.8766 117.37C61.8766 111.767 65.6579 108.009 71.2938 108.009C76.8946 108.009 79.891 111.448 79.891 115.81C79.891 117.937 78.2144 119.143 75.8244 119.143ZM67.8339 115.597H74.1478C73.8268 113.86 72.7566 112.796 70.9373 112.796C69.1894 112.796 68.1192 113.824 67.8339 115.597ZM88.4593 104.25V108.541H93.9885C95.3797 108.541 96.2715 109.463 96.2715 110.881C96.2715 112.264 95.3797 113.15 93.9885 113.15H88.4593V116.484C88.4593 120.349 90.0646 121.661 91.9909 121.661H95.0943C96.4855 121.661 97.3773 122.583 97.3773 124.001C97.3773 125.384 96.4855 126.27 95.0943 126.27H91.9909C85.9266 126.27 82.7518 123.398 82.7518 116.59V104.25C82.7518 102.548 83.8933 101.449 85.6412 101.449C87.3535 101.449 88.4593 102.548 88.4593 104.25ZM108.774 123.469V115.881C108.774 110.81 111.771 108.009 116.765 108.009C118.727 108.009 120.51 108.505 121.866 109.463C123.186 108.505 124.934 108.009 127.038 108.009C131.604 108.009 135.029 110.633 135.029 115.881V123.469C135.029 125.171 133.888 126.27 132.14 126.27C130.427 126.27 129.321 125.171 129.321 123.469V116.732C129.321 115.136 128.786 112.796 127.038 112.796C125.255 112.796 124.755 115.136 124.755 116.732V123.469C124.755 125.171 123.65 126.27 121.937 126.27C120.154 126.27 119.048 125.171 119.048 123.469V116.732C119.048 115.136 118.513 112.796 116.765 112.796C114.981 112.796 114.482 115.136 114.482 116.732V123.469C114.482 125.171 113.376 126.27 111.664 126.27C109.916 126.27 108.774 125.171 108.774 123.469ZM151.488 119.143H143.64C144.104 120.774 145.353 121.661 146.958 121.661H152.773C154.164 121.661 155.056 122.583 155.056 124.001C155.056 125.384 154.164 126.27 152.773 126.27H146.958C141.322 126.27 137.541 123.044 137.541 117.37C137.541 111.767 141.322 108.009 146.958 108.009C152.559 108.009 155.555 111.448 155.555 115.81C155.555 117.937 153.878 119.143 151.488 119.143ZM143.498 115.597H149.812C149.491 113.86 148.421 112.796 146.601 112.796C144.853 112.796 143.783 113.824 143.498 115.597Z" fill="black"/>
</mask>
<g mask="url(#mask0_156_2173)">
<path d="M26.6938 109.463L23.7882 113.528L26.7328 115.607L29.6508 113.491L26.6938 109.463ZM18.6185 123.469V115.881H8.58569V123.469H18.6185ZM18.6185 115.881C18.6185 114.323 19.0573 113.778 19.2307 113.61C19.4224 113.423 20.0191 112.995 21.5926 112.995V103.022C18.1721 103.022 14.7736 103.995 12.2185 106.477C9.64513 108.977 8.58569 112.368 8.58569 115.881H18.6185ZM21.5926 112.995C22.7435 112.995 23.4516 113.29 23.7882 113.528L29.5992 105.398C27.2248 103.721 24.3657 103.022 21.5926 103.022V112.995ZM29.6508 113.491C29.9038 113.307 30.5342 112.995 31.8664 112.995V103.022C28.9889 103.022 26.1233 103.704 23.7368 105.435L29.6508 113.491ZM31.8664 112.995C33.2135 112.995 33.8827 113.375 34.1675 113.638C34.389 113.841 34.8405 114.384 34.8405 115.881H44.8733C44.8733 112.129 43.6122 108.737 40.98 106.316C38.4111 103.954 35.0849 103.022 31.8664 103.022V112.995ZM34.8405 115.881V123.469H44.8733V115.881H34.8405ZM34.8405 123.469C34.8405 123.18 34.9634 122.521 35.5685 121.935C36.1596 121.363 36.7735 121.284 36.9675 121.284V131.257C38.9091 131.257 40.9678 130.628 42.5666 129.081C44.1794 127.52 44.8733 125.46 44.8733 123.469H34.8405ZM36.9675 121.284C37.2108 121.284 37.8615 121.384 38.4632 121.982C39.0652 122.58 39.1658 123.227 39.1658 123.469H29.133C29.133 125.413 29.7862 127.461 31.3692 129.034C32.9518 130.607 35.0116 131.257 36.9675 131.257V121.284ZM39.1658 123.469V116.732H29.133V123.469H39.1658ZM39.1658 116.732C39.1658 115.516 38.9802 113.772 38.2441 112.133C37.5006 110.478 35.5701 107.809 31.8664 107.809V117.782C31.0704 117.782 30.311 117.481 29.7553 117.023C29.2821 116.632 29.1096 116.258 29.0823 116.198C29.0474 116.12 29.0692 116.144 29.0959 116.296C29.1204 116.437 29.133 116.596 29.133 116.732H39.1658ZM31.8664 107.809C28.1676 107.809 26.2225 110.447 25.4654 112.155C24.733 113.807 24.5668 115.554 24.5668 116.732H34.5997C34.5997 116.578 34.6126 116.41 34.6368 116.267C34.663 116.11 34.6845 116.091 34.6463 116.176C34.6153 116.247 34.437 116.633 33.9512 117.031C33.3827 117.498 32.6277 117.782 31.8664 117.782V107.809ZM24.5668 116.732V123.469H34.5997V116.732H24.5668ZM24.5668 123.469C24.5668 123.227 24.6674 122.58 25.2691 121.982C25.8709 121.384 26.5216 121.284 26.7651 121.284V131.257C28.7208 131.257 30.7806 130.607 32.3633 129.034C33.9462 127.461 34.5997 125.413 34.5997 123.469H24.5668ZM26.7651 121.284C26.9194 121.284 27.5523 121.351 28.1665 121.951C28.7888 122.558 28.8922 123.225 28.8922 123.469H18.8593C18.8593 125.416 19.5155 127.483 21.1365 129.066C22.7496 130.641 24.8272 131.257 26.7651 131.257V121.284ZM28.8922 123.469V116.732H18.8593V123.469H28.8922ZM28.8922 116.732C28.8922 115.516 28.7066 113.772 27.9706 112.133C27.2271 110.478 25.2965 107.809 21.5926 107.809V117.782C20.797 117.782 20.0375 117.481 19.4818 117.023C19.0085 116.632 18.836 116.258 18.8088 116.198C18.7737 116.12 18.7956 116.144 18.8222 116.296C18.8468 116.437 18.8593 116.596 18.8593 116.732H28.8922ZM21.5926 107.809C17.8941 107.809 15.9489 110.447 15.1918 112.155C14.4594 113.807 14.2932 115.554 14.2932 116.732H24.326C24.326 116.578 24.339 116.41 24.3632 116.267C24.3895 116.11 24.4107 116.091 24.3727 116.176C24.3416 116.247 24.1633 116.633 23.6778 117.031C23.109 117.498 22.3542 117.782 21.5926 117.782V107.809ZM14.2932 116.732V123.469H24.326V116.732H14.2932ZM14.2932 123.469C14.2932 123.227 14.3938 122.58 14.9956 121.982C15.5973 121.384 16.248 121.284 16.4915 121.284V131.257C18.4473 131.257 20.507 130.607 22.0898 129.034C23.6726 127.461 24.326 125.413 24.326 123.469H14.2932ZM16.4915 121.284C16.6854 121.284 17.2993 121.363 17.8904 121.935C18.4955 122.521 18.6185 123.18 18.6185 123.469H8.58569C8.58569 125.46 9.27943 127.52 10.8922 129.081C12.4912 130.628 14.5497 131.257 16.4915 131.257V121.284ZM48.4684 119.143V114.157H41.8378L43.6409 120.499L48.4684 119.143ZM48.3257 115.597L43.3723 114.809L42.4429 120.584H48.3257V115.597ZM54.6397 115.597V120.584H60.6613L59.5733 114.696L54.6397 115.597ZM56.3163 114.157H48.4684V124.13H56.3163V114.157ZM43.6409 120.499C44.1359 122.24 45.1381 123.847 46.6892 125.003C48.2335 126.154 50.0371 126.647 51.7856 126.647V116.674C51.9291 116.674 52.3059 116.724 52.7089 117.024C53.1183 117.33 53.2643 117.677 53.2956 117.787L43.6409 120.499ZM51.7856 126.647H57.6005V116.674H51.7856V126.647ZM57.6005 126.647C57.1473 126.647 56.3433 126.47 55.658 125.766C54.9897 125.079 54.8671 124.337 54.8671 124.001H64.8999C64.8999 122.247 64.3311 120.334 62.8691 118.832C61.3901 117.312 59.4445 116.674 57.6005 116.674V126.647ZM54.8671 124.001C54.8671 123.609 55.0153 122.825 55.7165 122.128C56.4177 121.431 57.2058 121.284 57.6005 121.284V131.257C59.386 131.257 61.3157 130.666 62.8105 129.18C64.3054 127.694 64.8999 125.776 64.8999 124.001H54.8671ZM57.6005 121.284H51.7856V131.257H57.6005V121.284ZM51.7856 121.284C49.9075 121.284 48.8792 120.755 48.3683 120.286C47.9113 119.866 47.3848 119.057 47.3848 117.37H37.3521C37.3521 121.357 38.716 124.998 41.5586 127.61C44.3474 130.172 48.0278 131.257 51.7856 131.257V121.284ZM47.3848 117.37C47.3848 115.71 47.923 114.699 48.5105 114.115C49.0979 113.531 50.1157 112.995 51.7856 112.995V103.022C47.8196 103.022 44.1287 104.367 41.4165 107.063C38.7043 109.759 37.3521 113.428 37.3521 117.37H47.3848ZM51.7856 112.995C53.5336 112.995 54.3381 113.51 54.6818 113.844C55.0326 114.184 55.3665 114.781 55.3665 115.81H65.3993C65.3993 112.478 64.2346 109.174 61.6871 106.704C59.1324 104.227 55.6385 103.022 51.7856 103.022V112.995ZM55.3665 115.81C55.3665 115.681 55.3946 115.422 55.5418 115.111C55.6906 114.795 55.9055 114.544 56.124 114.371C56.5314 114.049 56.7243 114.157 56.3163 114.157V124.13C58.2983 124.13 60.5242 123.634 62.3674 122.178C64.3453 120.615 65.3993 118.312 65.3993 115.81H55.3665ZM48.3257 120.584H54.6397V110.611H48.3257V120.584ZM59.5733 114.696C59.2709 113.06 58.5235 111.258 56.9689 109.854C55.3626 108.403 53.3702 107.809 51.4292 107.809V117.782C51.3916 117.782 51.2255 117.777 50.9816 117.691C50.7283 117.602 50.461 117.451 50.2233 117.236C49.7389 116.799 49.6871 116.397 49.7058 116.498L59.5733 114.696ZM51.4292 107.809C49.5224 107.809 47.5298 108.396 45.9262 109.868C44.37 111.296 43.6421 113.132 43.3723 114.809L53.2788 116.385C53.2944 116.289 53.2443 116.725 52.7315 117.196C52.1713 117.71 51.5877 117.782 51.4292 117.782V107.809ZM67.9766 119.143V114.157H61.346L63.1491 120.499L67.9766 119.143ZM67.8339 115.597L62.8805 114.809L61.9511 120.584H67.8339V115.597ZM74.1479 115.597V120.584H80.1695L79.0815 114.696L74.1479 115.597ZM75.8245 114.157H67.9766V124.13H75.8245V114.157ZM63.1491 120.499C63.6441 122.24 64.6463 123.847 66.1974 125.003C67.7417 126.154 69.5453 126.647 71.2938 126.647V116.674C71.4373 116.674 71.8141 116.724 72.2171 117.024C72.6265 117.33 72.7725 117.677 72.8037 117.787L63.1491 120.499ZM71.2938 126.647H77.1087V116.674H71.2938V126.647ZM77.1087 126.647C76.6555 126.647 75.8515 126.47 75.1662 125.766C74.4979 125.079 74.3753 124.337 74.3753 124.001H84.4081C84.4081 122.247 83.8393 120.334 82.3773 118.832C80.8983 117.312 78.9527 116.674 77.1087 116.674V126.647ZM74.3753 124.001C74.3753 123.609 74.5235 122.825 75.2247 122.128C75.9259 121.431 76.714 121.284 77.1087 121.284V131.257C78.8942 131.257 80.8239 130.666 82.3187 129.18C83.8136 127.694 84.4081 125.776 84.4081 124.001H74.3753ZM77.1087 121.284H71.2938V131.257H77.1087V121.284ZM71.2938 121.284C69.4157 121.284 68.3874 120.755 67.8765 120.286C67.4195 119.866 66.893 119.057 66.893 117.37H56.8603C56.8603 121.357 58.2242 124.998 61.0668 127.61C63.8556 130.172 67.536 131.257 71.2938 131.257V121.284ZM66.893 117.37C66.893 115.71 67.4312 114.699 68.0187 114.115C68.6061 113.531 69.6239 112.995 71.2938 112.995V103.022C67.3278 103.022 63.6368 104.367 60.9247 107.063C58.2125 109.759 56.8603 113.428 56.8603 117.37H66.893ZM71.2938 112.995C73.0417 112.995 73.8463 113.51 74.1899 113.844C74.5408 114.184 74.8747 114.781 74.8747 115.81H84.9075C84.9075 112.478 83.7428 109.174 81.1953 106.704C78.6406 104.227 75.1467 103.022 71.2938 103.022V112.995ZM74.8747 115.81C74.8747 115.681 74.9028 115.422 75.05 115.111C75.1988 114.795 75.4137 114.544 75.6322 114.371C76.0396 114.049 76.2325 114.157 75.8245 114.157V124.13C77.8065 124.13 80.0324 123.634 81.8756 122.178C83.8535 120.615 84.9075 118.312 84.9075 115.81H74.8747ZM67.8339 120.584H74.1479V110.611H67.8339V120.584ZM79.0815 114.696C78.7791 113.06 78.0317 111.258 76.4771 109.854C74.8708 108.403 72.8784 107.809 70.9374 107.809V117.782C70.8998 117.782 70.7337 117.777 70.4898 117.691C70.2365 117.602 69.9692 117.451 69.7315 117.236C69.2471 116.799 69.1953 116.397 69.214 116.498L79.0815 114.696ZM70.9374 107.809C69.0306 107.809 67.038 108.396 65.4344 109.868C63.8782 111.296 63.1503 113.132 62.8805 114.809L72.787 116.385C72.8026 116.289 72.7525 116.725 72.2397 117.196C71.6795 117.71 71.096 117.782 70.9374 117.782V107.809ZM88.4594 108.541H83.443V113.527H88.4594V108.541ZM88.4594 113.151V108.164H83.443V113.151H88.4594ZM83.443 104.25V108.541H93.4757V104.25H83.443ZM88.4594 113.527H93.9885V103.554H88.4594V113.527ZM93.9885 113.527C93.5354 113.527 92.7314 113.35 92.0461 112.646C91.3778 111.959 91.2552 111.217 91.2552 110.881H101.288C101.288 109.127 100.719 107.214 99.2571 105.712C97.7781 104.192 95.8326 103.554 93.9885 103.554V113.527ZM91.2552 110.881C91.2552 110.489 91.4034 109.705 92.1046 109.008C92.8058 108.311 93.5939 108.164 93.9885 108.164V118.137C95.7741 118.137 97.7037 117.546 99.1986 116.06C100.694 114.574 101.288 112.656 101.288 110.881H91.2552ZM93.9885 108.164H88.4594V118.137H93.9885V108.164ZM83.443 113.151V116.484H93.4757V113.151H83.443ZM83.443 116.484C83.443 118.991 83.9463 121.566 85.5604 123.605C87.3273 125.837 89.794 126.647 91.9909 126.647V116.674C92.079 116.674 92.3217 116.69 92.6383 116.827C92.9769 116.975 93.2575 117.201 93.4448 117.438C93.6168 117.655 93.6226 117.769 93.5839 117.626C93.5432 117.476 93.4757 117.121 93.4757 116.484H83.443ZM91.9909 126.647H95.0944V116.674H91.9909V126.647ZM95.0944 126.647C94.6412 126.647 93.8372 126.47 93.1519 125.766C92.4836 125.079 92.361 124.337 92.361 124.001H102.394C102.394 122.247 101.825 120.334 100.363 118.832C98.884 117.312 96.9385 116.674 95.0944 116.674V126.647ZM92.361 124.001C92.361 123.609 92.5093 122.825 93.2104 122.128C93.9116 121.431 94.6998 121.284 95.0944 121.284V131.257C96.8799 131.257 98.8096 130.666 100.304 129.18C101.799 127.694 102.394 125.776 102.394 124.001H92.361ZM95.0944 121.284H91.9909V131.257H95.0944V121.284ZM91.9909 121.284C89.6725 121.284 88.9172 120.733 88.6745 120.488C88.4125 120.223 87.7682 119.322 87.7682 116.59H77.7354C77.7354 120.667 78.6782 124.606 81.5197 127.479C84.3805 130.372 88.2448 131.257 91.9909 131.257V121.284ZM87.7682 116.59V104.25H77.7354V116.59H87.7682ZM87.7682 104.25C87.7682 104.539 87.645 105.199 87.04 105.784C86.4489 106.356 85.8349 106.435 85.6413 106.435V96.4624C83.6994 96.4624 81.6407 97.091 80.0419 98.6382C78.4291 100.199 77.7354 102.259 77.7354 104.25H87.7682ZM85.6413 106.435C85.3977 106.435 84.7469 106.335 84.1453 105.737C83.5433 105.139 83.443 104.492 83.443 104.25H93.4757C93.4757 102.306 92.8222 100.259 91.2393 98.6853C89.6566 97.112 87.5968 96.4624 85.6413 96.4624V106.435ZM121.866 109.463L118.96 113.528L121.905 115.607L124.823 113.491L121.866 109.463ZM113.791 123.469V115.881H103.758V123.469H113.791ZM113.791 115.881C113.791 114.323 114.229 113.778 114.403 113.61C114.594 113.423 115.191 112.995 116.765 112.995V103.022C113.344 103.022 109.946 103.995 107.391 106.477C104.817 108.977 103.758 112.368 103.758 115.881H113.791ZM116.765 112.995C117.916 112.995 118.624 113.29 118.96 113.528L124.771 105.398C122.397 103.721 119.538 103.022 116.765 103.022V112.995ZM124.823 113.491C125.076 113.307 125.706 112.995 127.038 112.995V103.022C124.161 103.022 121.296 103.704 118.909 105.435L124.823 113.491ZM127.038 112.995C128.386 112.995 129.055 113.375 129.34 113.638C129.561 113.841 130.013 114.384 130.013 115.881H140.045C140.045 112.129 138.784 108.737 136.152 106.316C133.583 103.954 130.257 103.022 127.038 103.022V112.995ZM130.013 115.881V123.469H140.045V115.881H130.013ZM130.013 123.469C130.013 123.18 130.136 122.521 130.741 121.935C131.332 121.363 131.946 121.284 132.14 121.284V131.257C134.081 131.257 136.14 130.628 137.739 129.081C139.352 127.52 140.045 125.46 140.045 123.469H130.013ZM132.14 121.284C132.383 121.284 133.034 121.384 133.635 121.982C134.237 122.58 134.338 123.227 134.338 123.469H124.305C124.305 125.413 124.958 127.461 126.541 129.034C128.124 130.607 130.184 131.257 132.14 131.257V121.284ZM134.338 123.469V116.732H124.305V123.469H134.338ZM134.338 116.732C134.338 115.516 134.152 113.772 133.416 112.133C132.673 110.478 130.742 107.809 127.038 107.809V117.782C126.243 117.782 125.483 117.481 124.927 117.023C124.454 116.632 124.282 116.258 124.254 116.198C124.22 116.12 124.241 116.144 124.268 116.296C124.293 116.437 124.305 116.596 124.305 116.732H134.338ZM127.038 107.809C123.34 107.809 121.394 110.447 120.638 112.155C119.905 113.807 119.739 115.554 119.739 116.732H129.772C129.772 116.578 129.785 116.41 129.809 116.267C129.835 116.11 129.857 116.091 129.818 116.176C129.787 116.247 129.609 116.633 129.123 117.031C128.555 117.498 127.8 117.782 127.038 117.782V107.809ZM119.739 116.732V123.469H129.772V116.732H119.739ZM119.739 123.469C119.739 123.227 119.839 122.58 120.441 121.982C121.043 121.384 121.694 121.284 121.937 121.284V131.257C123.893 131.257 125.953 130.607 127.535 129.034C129.118 127.461 129.772 125.413 129.772 123.469H119.739ZM121.937 121.284C122.091 121.284 122.724 121.351 123.339 121.951C123.961 122.558 124.064 123.225 124.064 123.469H114.032C114.032 125.416 114.688 127.483 116.309 129.066C117.922 130.641 119.999 131.257 121.937 131.257V121.284ZM124.064 123.469V116.732H114.032V123.469H124.064ZM124.064 116.732C124.064 115.516 123.879 113.772 123.143 112.133C122.399 110.478 120.469 107.809 116.765 107.809V117.782C115.969 117.782 115.21 117.481 114.654 117.023C114.181 116.632 114.008 116.258 113.981 116.198C113.946 116.12 113.968 116.144 113.994 116.296C114.019 116.437 114.032 116.596 114.032 116.732H124.064ZM116.765 107.809C113.066 107.809 111.121 110.447 110.364 112.155C109.632 113.807 109.465 115.554 109.465 116.732H119.498C119.498 116.578 119.511 116.41 119.535 116.267C119.562 116.11 119.583 116.091 119.545 116.176C119.514 116.247 119.336 116.633 118.85 117.031C118.281 117.498 117.526 117.782 116.765 117.782V107.809ZM109.465 116.732V123.469H119.498V116.732H109.465ZM109.465 123.469C109.465 123.227 109.566 122.58 110.168 121.982C110.769 121.384 111.42 121.284 111.664 121.284V131.257C113.619 131.257 115.679 130.607 117.262 129.034C118.845 127.461 119.498 125.413 119.498 123.469H109.465ZM111.664 121.284C111.857 121.284 112.471 121.363 113.063 121.935C113.668 122.521 113.791 123.18 113.791 123.469H103.758C103.758 125.46 104.452 127.52 106.064 129.081C107.663 130.628 109.722 131.257 111.664 131.257V121.284ZM143.641 119.143V114.157H137.01L138.813 120.499L143.641 119.143ZM143.498 115.597L138.544 114.809L137.615 120.584H143.498V115.597ZM149.812 115.597V120.584H155.833L154.745 114.696L149.812 115.597ZM151.488 114.157H143.641V124.13H151.488V114.157ZM138.813 120.499C139.308 122.24 140.31 123.847 141.861 125.003C143.406 126.154 145.209 126.647 146.958 126.647V116.674C147.101 116.674 147.478 116.724 147.881 117.024C148.29 117.33 148.436 117.677 148.468 117.787L138.813 120.499ZM146.958 126.647H152.773V116.674H146.958V126.647ZM152.773 126.647C152.319 126.647 151.515 126.47 150.83 125.766C150.162 125.079 150.039 124.337 150.039 124.001H160.072C160.072 122.247 159.503 120.334 158.041 118.832C156.562 117.312 154.617 116.674 152.773 116.674V126.647ZM150.039 124.001C150.039 123.609 150.187 122.825 150.889 122.128C151.59 121.431 152.378 121.284 152.773 121.284V131.257C154.558 131.257 156.488 130.666 157.983 129.18C159.478 127.694 160.072 125.776 160.072 124.001H150.039ZM152.773 121.284H146.958V131.257H152.773V121.284ZM146.958 121.284C145.08 121.284 144.051 120.755 143.54 120.286C143.083 119.866 142.557 119.057 142.557 117.37H132.524C132.524 121.357 133.888 124.998 136.731 127.61C139.52 130.172 143.2 131.257 146.958 131.257V121.284ZM142.557 117.37C142.557 115.71 143.095 114.699 143.683 114.115C144.27 113.531 145.288 112.995 146.958 112.995V103.022C142.992 103.022 139.301 104.367 136.589 107.063C133.876 109.759 132.524 113.428 132.524 117.37H142.557ZM146.958 112.995C148.706 112.995 149.51 113.51 149.854 113.844C150.205 114.184 150.539 114.781 150.539 115.81H160.571C160.571 112.478 159.407 109.174 156.859 106.704C154.305 104.227 150.811 103.022 146.958 103.022V112.995ZM150.539 115.81C150.539 115.681 150.567 115.422 150.714 115.111C150.863 114.795 151.078 114.544 151.296 114.371C151.704 114.049 151.896 114.157 151.488 114.157V124.13C153.47 124.13 155.696 123.634 157.54 122.178C159.517 120.615 160.571 118.312 160.571 115.81H150.539ZM143.498 120.584H149.812V110.611H143.498V120.584ZM154.745 114.696C154.443 113.06 153.696 111.258 152.141 109.854C150.535 108.403 148.542 107.809 146.601 107.809V117.782C146.564 117.782 146.398 117.777 146.154 117.691C145.9 117.602 145.633 117.451 145.395 117.236C144.911 116.799 144.859 116.397 144.878 116.498L154.745 114.696ZM146.601 107.809C144.695 107.809 142.702 108.396 141.098 109.868C139.542 111.296 138.814 113.132 138.544 114.809L148.451 116.385C148.467 116.289 148.416 116.725 147.904 117.196C147.343 117.71 146.76 117.782 146.601 117.782V107.809Z" fill="white"/>
</g>
</g>
<defs>
<filter id="filter0_d_156_2173" x="21.1499" y="0.0632324" width="126.365" height="109.323" filterUnits="userSpaceOnUse" color-interpolation-filters="sRGB">
<feFlood flood-opacity="0" result="BackgroundImageFix"/>
<feColorMatrix in="SourceAlpha" type="matrix" values="0 0 0 0 0 0 0 0 0 0 0 0 0 0 0 0 0 0 127 0" result="hardAlpha"/>
<feOffset/>
<feGaussianBlur stdDeviation="10"/>
<feComposite in2="hardAlpha" operator="out"/>
<feColorMatrix type="matrix" values="0 0 0 0 0.454215 0 0 0 0 0.454215 0 0 0 0 0.454215 0 0 0 0.33 0"/>
<feBlend mode="normal" in2="BackgroundImageFix" result="effect1_dropShadow_156_2173"/>
<feBlend mode="normal" in="SourceGraphic" in2="effect1_dropShadow_156_2173" result="shape"/>
</filter>
<filter id="filter1_d_156_2173" x="4.58569" y="96.4624" width="159.986" height="42.7944" filterUnits="userSpaceOnUse" color-interpolation-filters="sRGB">
<feFlood flood-opacity="0" result="BackgroundImageFix"/>
<feColorMatrix in="SourceAlpha" type="matrix" values="0 0 0 0 0 0 0 0 0 0 0 0 0 0 0 0 0 0 127 0" result="hardAlpha"/>
<feOffset dy="4"/>
<feGaussianBlur stdDeviation="2"/>
<feComposite in2="hardAlpha" operator="out"/>
<feColorMatrix type="matrix" values="0 0 0 0 0 0 0 0 0 0 0 0 0 0 0 0 0 0 0.25 0"/>
<feBlend mode="normal" in2="BackgroundImageFix" result="effect1_dropShadow_156_2173"/>
<feBlend mode="normal" in="SourceGraphic" in2="effect1_dropShadow_156_2173" result="shape"/>
</filter>
<radialGradient id="paint0_radial_156_2173" cx="0" cy="0" r="1" gradientUnits="userSpaceOnUse" gradientTransform="translate(78.7867 59.8331) rotate(133.111) scale(17.215 48.0899)">
<stop stop-color="#B8E5F8"/>
<stop offset="0.625628" stop-color="#A1D7FF"/>
<stop offset="1" stop-color="#65D1FF"/>
</radialGradient>
<radialGradient id="paint1_radial_156_2173" cx="0" cy="0" r="1" gradientUnits="userSpaceOnUse" gradientTransform="translate(107.409 38.5382) rotate(138.217) scale(43.0935 23.9963)">
<stop offset="0.15436" stop-color="#FFA056"/>
<stop offset="0.6984" stop-color="#FFB156"/>
<stop offset="0.999146" stop-color="#FFC960"/>
</radialGradient>
</defs>
</svg>
