<svg width="400" height="94" viewBox="0 0 400 94" fill="none" xmlns="http://www.w3.org/2000/svg">
<path d="M14.769 72.2267V52.4201C14.769 39.1849 22.5887 31.8732 35.6214 31.8732C40.7414 31.8732 45.396 33.1689 48.9334 35.6679C52.3778 33.1689 56.9392 31.8732 62.4316 31.8732C74.3476 31.8732 83.2843 38.7222 83.2843 52.4201V72.2267C83.2843 76.6693 80.3054 79.5384 75.744 79.5384C71.2752 79.5384 68.3894 76.6693 68.3894 72.2267V54.6414C68.3894 50.4765 66.993 44.368 62.4316 44.368C57.777 44.368 56.4738 50.4765 56.4738 54.6414V72.2267C56.4738 76.6693 53.5879 79.5384 49.1196 79.5384C44.465 79.5384 41.5792 76.6693 41.5792 72.2267V54.6414C41.5792 50.4765 40.1829 44.368 35.6214 44.368C30.9669 44.368 29.6636 50.4765 29.6636 54.6414V72.2267C29.6636 76.6693 26.7778 79.5384 22.3094 79.5384C17.748 79.5384 14.769 76.6693 14.769 72.2267ZM126.237 60.9351H105.757C106.967 65.1926 110.225 67.5064 114.414 67.5064H129.588C133.219 67.5064 135.546 69.9128 135.546 73.615C135.546 77.2246 133.219 79.5384 129.588 79.5384H114.414C99.7061 79.5384 89.8385 71.116 89.8385 56.3074C89.8385 41.6839 99.7061 31.8732 114.414 31.8732C129.03 31.8732 136.849 40.8509 136.849 52.235C136.849 57.7883 132.474 60.9351 126.237 60.9351ZM105.385 51.6797H121.862C121.024 47.1446 118.231 44.368 113.484 44.368C108.922 44.368 106.129 47.052 105.385 51.6797ZM177.146 60.9351H156.666C157.876 65.1926 161.135 67.5064 165.323 67.5064H180.497C184.128 67.5064 186.455 69.9128 186.455 73.615C186.455 77.2246 184.128 79.5384 180.497 79.5384H165.323C150.615 79.5384 140.748 71.116 140.748 56.3074C140.748 41.6839 150.615 31.8732 165.323 31.8732C179.939 31.8732 187.758 40.8509 187.758 52.235C187.758 57.7883 183.383 60.9351 177.146 60.9351ZM156.294 51.6797H172.771C171.933 47.1446 169.14 44.368 164.393 44.368C159.831 44.368 157.039 47.052 156.294 51.6797ZM210.118 22.0625V33.2615H224.548C228.178 33.2615 230.505 35.6679 230.505 39.3701C230.505 42.9797 228.178 45.2935 224.548 45.2935H210.118V53.9936C210.118 64.0819 214.308 67.5064 219.335 67.5064H227.433C231.064 67.5064 233.391 69.9128 233.391 73.615C233.391 77.2246 231.064 79.5384 227.433 79.5384H219.335C203.509 79.5384 195.224 72.0416 195.224 54.2712V22.0625C195.224 17.6199 198.203 14.7507 202.764 14.7507C207.233 14.7507 210.118 17.6199 210.118 22.0625ZM263.133 72.2267V52.4201C263.133 39.1849 270.953 31.8732 283.985 31.8732C289.105 31.8732 293.76 33.1689 297.297 35.6679C300.742 33.1689 305.303 31.8732 310.796 31.8732C322.711 31.8732 331.648 38.7222 331.648 52.4201V72.2267C331.648 76.6693 328.669 79.5384 324.108 79.5384C319.639 79.5384 316.753 76.6693 316.753 72.2267V54.6414C316.753 50.4765 315.357 44.368 310.796 44.368C306.141 44.368 304.838 50.4765 304.838 54.6414V72.2267C304.838 76.6693 301.952 79.5384 297.484 79.5384C292.829 79.5384 289.943 76.6693 289.943 72.2267V54.6414C289.943 50.4765 288.547 44.368 283.985 44.368C279.331 44.368 278.028 50.4765 278.028 54.6414V72.2267C278.028 76.6693 275.142 79.5384 270.673 79.5384C266.112 79.5384 263.133 76.6693 263.133 72.2267ZM374.601 60.9351H354.121C355.331 65.1926 358.589 67.5064 362.777 67.5064H377.952C381.583 67.5064 383.91 69.9128 383.91 73.615C383.91 77.2246 381.583 79.5384 377.952 79.5384H362.777C348.07 79.5384 338.202 71.116 338.202 56.3074C338.202 41.6839 348.07 31.8732 362.777 31.8732C377.393 31.8732 385.213 40.8509 385.213 52.235C385.213 57.7883 380.838 60.9351 374.601 60.9351ZM353.748 51.6797H370.225C369.388 47.1446 366.595 44.368 361.847 44.368C357.286 44.368 354.493 47.052 353.748 51.6797Z" fill="#515D62"/>
<mask id="mask0_155_1798" style="mask-type:luminance" maskUnits="userSpaceOnUse" x="1" y="1" width="398" height="92">
<path d="M398.546 1.44604H1.45459V92.5537H398.546V1.44604Z" fill="white"/>
<path d="M14.769 72.2267V52.4201C14.769 39.1849 22.5887 31.8732 35.6214 31.8732C40.7414 31.8732 45.396 33.1689 48.9334 35.6679C52.3778 33.1689 56.9392 31.8732 62.4316 31.8732C74.3476 31.8732 83.2843 38.7222 83.2843 52.4201V72.2267C83.2843 76.6693 80.3054 79.5384 75.744 79.5384C71.2752 79.5384 68.3894 76.6693 68.3894 72.2267V54.6414C68.3894 50.4765 66.993 44.368 62.4316 44.368C57.777 44.368 56.4738 50.4765 56.4738 54.6414V72.2267C56.4738 76.6693 53.5879 79.5384 49.1196 79.5384C44.465 79.5384 41.5792 76.6693 41.5792 72.2267V54.6414C41.5792 50.4765 40.1829 44.368 35.6214 44.368C30.9669 44.368 29.6636 50.4765 29.6636 54.6414V72.2267C29.6636 76.6693 26.7778 79.5384 22.3094 79.5384C17.748 79.5384 14.769 76.6693 14.769 72.2267ZM126.237 60.9351H105.757C106.967 65.1926 110.225 67.5064 114.414 67.5064H129.588C133.219 67.5064 135.546 69.9128 135.546 73.615C135.546 77.2246 133.219 79.5384 129.588 79.5384H114.414C99.7061 79.5384 89.8385 71.116 89.8385 56.3074C89.8385 41.6839 99.7061 31.8732 114.414 31.8732C129.03 31.8732 136.849 40.8509 136.849 52.235C136.849 57.7883 132.474 60.9351 126.237 60.9351ZM105.385 51.6797H121.862C121.024 47.1446 118.231 44.368 113.484 44.368C108.922 44.368 106.129 47.052 105.385 51.6797ZM177.146 60.9351H156.666C157.876 65.1926 161.135 67.5064 165.323 67.5064H180.497C184.128 67.5064 186.455 69.9128 186.455 73.615C186.455 77.2246 184.128 79.5384 180.497 79.5384H165.323C150.615 79.5384 140.748 71.116 140.748 56.3074C140.748 41.6839 150.615 31.8732 165.323 31.8732C179.939 31.8732 187.758 40.8509 187.758 52.235C187.758 57.7883 183.383 60.9351 177.146 60.9351ZM156.294 51.6797H172.771C171.933 47.1446 169.14 44.368 164.393 44.368C159.831 44.368 157.039 47.052 156.294 51.6797ZM210.118 22.0625V33.2615H224.548C228.178 33.2615 230.505 35.6679 230.505 39.3701C230.505 42.9797 228.178 45.2935 224.548 45.2935H210.118V53.9936C210.118 64.0819 214.308 67.5064 219.335 67.5064H227.433C231.064 67.5064 233.391 69.9128 233.391 73.615C233.391 77.2246 231.064 79.5384 227.433 79.5384H219.335C203.509 79.5384 195.224 72.0416 195.224 54.2712V22.0625C195.224 17.6199 198.203 14.7507 202.764 14.7507C207.233 14.7507 210.118 17.6199 210.118 22.0625ZM263.133 72.2267V52.4201C263.133 39.1849 270.953 31.8732 283.985 31.8732C289.105 31.8732 293.76 33.1689 297.297 35.6679C300.742 33.1689 305.303 31.8732 310.796 31.8732C322.711 31.8732 331.648 38.7222 331.648 52.4201V72.2267C331.648 76.6693 328.669 79.5384 324.108 79.5384C319.639 79.5384 316.753 76.6693 316.753 72.2267V54.6414C316.753 50.4765 315.357 44.368 310.796 44.368C306.141 44.368 304.838 50.4765 304.838 54.6414V72.2267C304.838 76.6693 301.952 79.5384 297.484 79.5384C292.829 79.5384 289.943 76.6693 289.943 72.2267V54.6414C289.943 50.4765 288.547 44.368 283.985 44.368C279.331 44.368 278.028 50.4765 278.028 54.6414V72.2267C278.028 76.6693 275.142 79.5384 270.673 79.5384C266.112 79.5384 263.133 76.6693 263.133 72.2267ZM374.601 60.9351H354.121C355.331 65.1926 358.589 67.5064 362.777 67.5064H377.952C381.583 67.5064 383.91 69.9128 383.91 73.615C383.91 77.2246 381.583 79.5384 377.952 79.5384H362.777C348.07 79.5384 338.202 71.116 338.202 56.3074C338.202 41.6839 348.07 31.8732 362.777 31.8732C377.393 31.8732 385.213 40.8509 385.213 52.235C385.213 57.7883 380.838 60.9351 374.601 60.9351ZM353.748 51.6797H370.225C369.388 47.1446 366.595 44.368 361.847 44.368C357.286 44.368 354.493 47.052 353.748 51.6797Z" fill="black"/>
</mask>
<g mask="url(#mask0_155_1798)">
<path d="M48.9335 35.6679L41.3512 46.2778L49.0355 51.7062L56.6501 46.1816L48.9335 35.6679ZM27.86 72.2267V52.4202H1.67822V72.2267H27.86ZM27.86 52.4202C27.86 48.3544 29.0051 46.9316 29.4577 46.4919C29.9579 46.006 31.515 44.8886 35.6215 44.8886V18.8578C26.6952 18.8578 17.8262 21.3963 11.1584 27.875C4.44294 34.4 1.67822 43.2507 1.67822 52.4202H27.86ZM35.6215 44.8886C38.6249 44.8886 40.4728 45.6573 41.3512 46.2778L56.5158 25.0581C50.3193 20.6806 42.8581 18.8578 35.6215 18.8578V44.8886ZM56.6501 46.1816C57.3109 45.7022 58.9557 44.8886 62.4317 44.8886V18.8578C54.9229 18.8578 47.4448 20.6356 41.2168 25.1542L56.6501 46.1816ZM62.4317 44.8886C65.9474 44.8886 67.6937 45.881 68.4369 46.5645C69.015 47.0962 70.1931 48.5144 70.1931 52.4202H96.3753C96.3753 42.628 93.0844 33.7727 86.2153 27.4553C79.5113 21.2899 70.8316 18.8578 62.4317 18.8578V44.8886ZM70.1931 52.4202V72.2267H96.3753V52.4202H70.1931ZM70.1931 72.2267C70.1931 71.4722 70.5141 69.7505 72.0931 68.2223C73.6357 66.7292 75.2379 66.523 75.744 66.523V92.5538C80.811 92.5538 86.1833 90.9132 90.3557 86.8748C94.5644 82.801 96.3753 77.4242 96.3753 72.2267H70.1931ZM75.744 66.523C76.379 66.523 78.0771 66.7839 79.6473 68.3453C81.2182 69.9066 81.4808 71.5949 81.4808 72.2267H55.2986C55.2986 77.3012 57.0039 82.6455 61.1343 86.7518C65.2647 90.8582 70.6398 92.5538 75.744 92.5538V66.523ZM81.4808 72.2267V54.6415H55.2986V72.2267H81.4808ZM81.4808 54.6415C81.4808 51.4668 80.9964 46.9168 79.0757 42.6382C77.1353 38.317 72.0974 31.3526 62.4317 31.3526V57.3834C60.3552 57.3834 58.3733 56.5975 56.9232 55.4001C55.688 54.3801 55.2379 53.4058 55.1669 53.2476C55.0753 53.0437 55.1326 53.1071 55.2019 53.5045C55.2661 53.872 55.2986 54.2871 55.2986 54.6415H81.4808ZM62.4317 31.3526C52.7797 31.3526 47.7037 38.2369 45.728 42.6943C43.8167 47.0065 43.383 51.566 43.383 54.6415H69.5648C69.5648 54.2407 69.5987 53.8015 69.6617 53.4267C69.7303 53.0189 69.7859 52.9675 69.6867 53.1914C69.6056 53.3744 69.1401 54.3827 67.8731 55.4231C66.3888 56.6417 64.4189 57.3834 62.4317 57.3834V31.3526ZM43.383 54.6415V72.2267H69.5648V54.6415H43.383ZM43.383 72.2267C43.383 71.5949 43.6454 69.9066 45.2158 68.3453C46.7862 66.7839 48.4842 66.523 49.1197 66.523V92.5538C54.2235 92.5538 59.5987 90.8582 63.7291 86.7518C67.8595 82.6455 69.5648 77.3012 69.5648 72.2267H43.383ZM49.1197 66.523C49.5222 66.523 51.1738 66.6973 52.7769 68.2627C54.4007 69.8483 54.6702 71.5889 54.6702 72.2267H28.4884C28.4884 77.307 30.2008 82.7033 34.4312 86.8343C38.6408 90.945 44.0626 92.5538 49.1197 92.5538V66.523ZM54.6702 72.2267V54.6415H28.4884V72.2267H54.6702ZM54.6702 54.6415C54.6702 51.4668 54.186 46.9168 52.2652 42.6382C50.3254 38.317 45.2872 31.3526 35.6215 31.3526V57.3834C33.5451 57.3834 31.5631 56.5975 30.113 55.4001C28.8778 54.3801 28.4277 53.4058 28.3567 53.2476C28.2651 53.0437 28.3224 53.1071 28.3918 53.5045C28.4558 53.872 28.4884 54.2871 28.4884 54.6415H54.6702ZM35.6215 31.3526C25.9696 31.3526 20.8935 38.2369 18.9178 42.6943C17.0065 47.0065 16.5728 51.566 16.5728 54.6415H42.7546C42.7546 54.2407 42.7885 53.8015 42.8515 53.4267C42.9201 53.0189 42.9757 52.9675 42.8765 53.1914C42.7953 53.3744 42.3299 54.3827 41.0629 55.4231C39.5787 56.6417 37.6088 57.3834 35.6215 57.3834V31.3526ZM16.5728 54.6415V72.2267H42.7546V54.6415H16.5728ZM16.5728 72.2267C16.5728 71.5949 16.8352 69.9066 18.4056 68.3453C19.976 66.7839 21.674 66.523 22.3095 66.523V92.5538C27.4134 92.5538 32.7885 90.8582 36.9189 86.7518C41.0493 82.6455 42.7546 77.3012 42.7546 72.2267H16.5728ZM22.3095 66.523C22.8155 66.523 24.4174 66.7292 25.9601 68.2223C27.5391 69.7505 27.86 71.4722 27.86 72.2267H1.67822C1.67822 77.4242 3.48861 82.801 7.69742 86.8748C11.87 90.9132 17.242 92.5538 22.3095 92.5538V66.523ZM105.757 60.9351V47.9197H88.4539L93.1593 64.4747L105.757 60.9351ZM105.385 51.6797L92.4582 49.6234L90.0328 64.6951H105.385V51.6797ZM121.862 51.6797V64.6951H137.576L134.737 49.3285L121.862 51.6797ZM126.237 47.9197H105.757V73.9505H126.237V47.9197ZM93.1593 64.4747C94.4509 69.0183 97.0662 73.2115 101.114 76.2296C105.144 79.2347 109.851 80.5218 114.414 80.5218V54.4911C114.788 54.4911 115.772 54.6211 116.823 55.405C117.892 56.2019 118.273 57.1094 118.354 57.3955L93.1593 64.4747ZM114.414 80.5218H129.588V54.4911H114.414V80.5218ZM129.588 80.5218C128.406 80.5218 126.308 80.0598 124.519 78.2217C122.775 76.4292 122.455 74.4921 122.455 73.615H148.637C148.637 69.0358 147.153 64.0442 143.338 60.123C139.478 56.1562 134.401 54.4911 129.588 54.4911V80.5218ZM122.455 73.615C122.455 72.5911 122.842 70.5463 124.672 68.7271C126.502 66.9078 128.559 66.523 129.588 66.523V92.5538C134.248 92.5538 139.284 91.0122 143.185 87.1336C147.086 83.2551 148.637 78.2485 148.637 73.615H122.455ZM129.588 66.523H114.414V92.5538H129.588V66.523ZM114.414 66.523C109.513 66.523 106.829 65.143 105.496 63.9184C104.303 62.8218 102.93 60.7108 102.93 56.3074H76.7477C76.7477 66.7126 80.307 76.2173 87.7251 83.0338C95.003 89.723 104.607 92.5538 114.414 92.5538V66.523ZM102.93 56.3074C102.93 51.9741 104.334 49.334 105.867 47.8098C107.4 46.2856 110.056 44.8886 114.414 44.8886V18.8578C104.064 18.8578 94.432 22.3662 87.3542 29.4032C80.2764 36.4402 76.7477 46.0172 76.7477 56.3074H102.93ZM114.414 44.8886C118.975 44.8886 121.075 46.2327 121.972 47.1023C122.887 47.9902 123.759 49.5485 123.759 52.2351H149.94C149.94 43.5375 146.901 34.9148 140.253 28.4679C133.586 22.0026 124.468 18.8578 114.414 18.8578V44.8886ZM123.759 52.2351C123.759 51.8978 123.832 51.2235 124.216 50.4098C124.604 49.5866 125.165 48.93 125.735 48.4796C126.799 47.6388 127.302 47.9197 126.237 47.9197V73.9505C131.41 73.9505 137.218 72.6576 142.028 68.8555C147.19 64.7758 149.94 58.7663 149.94 52.2351H123.759ZM105.385 64.6951H121.862V38.6643H105.385V64.6951ZM134.737 49.3285C133.948 45.0574 131.997 40.3525 127.94 36.689C123.748 32.903 118.549 31.3526 113.484 31.3526V57.3834C113.385 57.3834 112.952 57.368 112.316 57.1443C111.655 56.912 110.957 56.5174 110.337 55.9574C109.073 54.8159 108.938 53.767 108.986 54.031L134.737 49.3285ZM113.484 31.3526C108.508 31.3526 103.308 32.8845 99.123 36.7247C95.0619 40.4521 93.1622 45.2458 92.4582 49.6234L118.311 53.736C118.351 53.486 118.22 54.6238 116.882 55.8522C115.42 57.1935 113.897 57.3834 113.484 57.3834V31.3526ZM156.666 60.9351V47.9197H139.363L144.068 64.4747L156.666 60.9351ZM156.294 51.6797L143.367 49.6234L140.942 64.6951H156.294V51.6797ZM172.771 51.6797V64.6951H188.485L185.646 49.3285L172.771 51.6797ZM177.146 47.9197H156.666V73.9505H177.146V47.9197ZM144.068 64.4747C145.36 69.0183 147.975 73.2115 152.023 76.2296C156.053 79.2347 160.76 80.5218 165.323 80.5218V54.4911C165.698 54.4911 166.681 54.6211 167.732 55.405C168.801 56.2019 169.182 57.1094 169.263 57.3955L144.068 64.4747ZM165.323 80.5218H180.498V54.4911H165.323V80.5218ZM180.498 80.5218C179.315 80.5218 177.217 80.0598 175.428 78.2217C173.684 76.4292 173.364 74.4921 173.364 73.615H199.546C199.546 69.0358 198.062 64.0442 194.247 60.123C190.387 56.1562 185.31 54.4911 180.498 54.4911V80.5218ZM173.364 73.615C173.364 72.5911 173.751 70.5463 175.581 68.7271C177.411 66.9078 179.468 66.523 180.498 66.523V92.5538C185.157 92.5538 190.193 91.0122 194.094 87.1336C197.995 83.2551 199.546 78.2485 199.546 73.615H173.364ZM180.498 66.523H165.323V92.5538H180.498V66.523ZM165.323 66.523C160.422 66.523 157.738 65.143 156.405 63.9184C155.212 62.8218 153.839 60.7108 153.839 56.3074H127.657C127.657 66.7126 131.216 76.2173 138.634 83.0338C145.912 89.723 155.516 92.5538 165.323 92.5538V66.523ZM153.839 56.3074C153.839 51.9741 155.243 49.334 156.776 47.8098C158.309 46.2856 160.965 44.8886 165.323 44.8886V18.8578C154.973 18.8578 145.341 22.3662 138.263 29.4032C131.186 36.4402 127.657 46.0172 127.657 56.3074H153.839ZM165.323 44.8886C169.884 44.8886 171.984 46.2327 172.881 47.1023C173.796 47.9902 174.668 49.5485 174.668 52.2351H200.85C200.85 43.5375 197.81 34.9148 191.162 28.4679C184.495 22.0026 175.378 18.8578 165.323 18.8578V44.8886ZM174.668 52.2351C174.668 51.8978 174.741 51.2235 175.125 50.4098C175.514 49.5866 176.074 48.93 176.644 48.4796C177.708 47.6388 178.211 47.9197 177.146 47.9197V73.9505C182.319 73.9505 188.127 72.6576 192.938 68.8555C198.099 64.7758 200.85 58.7663 200.85 52.2351H174.668ZM156.294 64.6951H172.771V38.6643H156.294V64.6951ZM185.646 49.3285C184.857 45.0574 182.906 40.3525 178.85 36.689C174.658 32.903 169.458 31.3526 164.393 31.3526V57.3834C164.295 57.3834 163.861 57.368 163.225 57.1443C162.564 56.912 161.866 56.5174 161.246 55.9574C159.982 54.8159 159.847 53.767 159.895 54.031L185.646 49.3285ZM164.393 31.3526C159.417 31.3526 154.217 32.8845 150.032 36.7247C145.971 40.4521 144.071 45.2458 143.367 49.6234L169.22 53.736C169.26 53.486 169.13 54.6238 167.791 55.8522C166.329 57.1935 164.807 57.3834 164.393 57.3834V31.3526ZM210.119 33.2615H197.028V46.2769H210.119V33.2615ZM210.119 45.2935V32.2781H197.028V45.2935H210.119ZM197.028 22.0625V33.2615H223.21V22.0625H197.028ZM210.119 46.2769H224.548V20.2461H210.119V46.2769ZM224.548 46.2769C223.365 46.2769 221.267 45.815 219.479 43.9769C217.735 42.1844 217.415 40.2471 217.415 39.3701H243.596C243.596 34.7909 242.112 29.7993 238.297 25.878C234.437 21.9112 229.36 20.2461 224.548 20.2461V46.2769ZM217.415 39.3701C217.415 38.3464 217.802 36.3014 219.631 34.4821C221.461 32.6629 223.518 32.2781 224.548 32.2781V58.3089C229.207 58.3089 234.243 56.7672 238.144 52.8886C242.045 49.0101 243.596 44.0033 243.596 39.3701H217.415ZM224.548 32.2781H210.119V58.3089H224.548V32.2781ZM197.028 45.2935V53.9936H223.21V45.2935H197.028ZM197.028 53.9936C197.028 60.5371 198.341 67.2599 202.553 72.5817C207.164 78.4075 213.602 80.5218 219.335 80.5218V54.4911C219.564 54.4911 220.198 54.5315 221.024 54.8911C221.908 55.2758 222.64 55.8671 223.129 56.4846C223.577 57.0512 223.593 57.348 223.492 56.9762C223.385 56.5842 223.21 55.6564 223.21 53.9936H197.028ZM219.335 80.5218H227.434V54.4911H219.335V80.5218ZM227.434 80.5218C226.251 80.5218 224.153 80.0598 222.364 78.2217C220.62 76.4292 220.3 74.4921 220.3 73.615H246.482C246.482 69.0358 244.998 64.0442 241.183 60.123C237.323 56.1562 232.246 54.4911 227.434 54.4911V80.5218ZM220.3 73.615C220.3 72.5911 220.687 70.5463 222.517 68.7271C224.347 66.9078 226.404 66.523 227.434 66.523V92.5538C232.093 92.5538 237.129 91.0122 241.03 87.1336C244.931 83.2551 246.482 78.2485 246.482 73.615H220.3ZM227.434 66.523H219.335V92.5538H227.434V66.523ZM219.335 66.523C213.284 66.523 211.314 65.0853 210.68 64.4444C209.996 63.7532 208.315 61.4006 208.315 54.2712H182.133C182.133 64.9123 184.594 75.1935 192.009 82.6932C199.474 90.2429 209.559 92.5538 219.335 92.5538V66.523ZM208.315 54.2712V22.0625H182.133V54.2712H208.315ZM208.315 22.0625C208.315 22.817 207.994 24.5387 206.415 26.0669C204.872 27.56 203.27 27.7661 202.764 27.7661V1.73535C197.697 1.73535 192.324 3.37609 188.152 7.4144C183.943 11.4879 182.133 16.8654 182.133 22.0625H208.315ZM202.764 27.7661C202.129 27.7661 200.431 27.5052 198.86 25.9439C197.29 24.3826 197.028 22.6943 197.028 22.0625H223.21C223.21 16.9881 221.504 11.644 217.373 7.5374C213.243 3.43083 207.868 1.73535 202.764 1.73535V27.7661ZM297.298 35.6679L289.715 46.2778L297.399 51.7062L305.014 46.1816L297.298 35.6679ZM276.224 72.2267V52.4202H250.042V72.2267H276.224ZM276.224 52.4202C276.224 48.3544 277.369 46.9316 277.821 46.4919C278.322 46.006 279.879 44.8886 283.985 44.8886V18.8578C275.059 18.8578 266.19 21.3963 259.522 27.875C252.807 34.4 250.042 43.2507 250.042 52.4202H276.224ZM283.985 44.8886C286.988 44.8886 288.836 45.6573 289.715 46.2778L304.879 25.0581C298.683 20.6806 291.222 18.8578 283.985 18.8578V44.8886ZM305.014 46.1816C305.674 45.7022 307.319 44.8886 310.796 44.8886V18.8578C303.287 18.8578 295.809 20.6356 289.58 25.1542L305.014 46.1816ZM310.796 44.8886C314.311 44.8886 316.058 45.881 316.801 46.5645C317.379 47.0962 318.557 48.5144 318.557 52.4202H344.739C344.739 42.628 341.448 33.7727 334.579 27.4553C327.875 21.2899 319.195 18.8578 310.796 18.8578V44.8886ZM318.557 52.4202V72.2267H344.739V52.4202H318.557ZM318.557 72.2267C318.557 71.4722 318.878 69.7505 320.457 68.2223C321.999 66.7292 323.602 66.523 324.108 66.523V92.5538C329.175 92.5538 334.547 90.9132 338.719 86.8748C342.928 82.801 344.739 77.4242 344.739 72.2267H318.557ZM324.108 66.523C324.743 66.523 326.441 66.7839 328.011 68.3453C329.582 69.9066 329.844 71.5949 329.844 72.2267H303.663C303.663 77.3012 305.367 82.6455 309.498 86.7518C313.628 90.8582 319.004 92.5538 324.108 92.5538V66.523ZM329.844 72.2267V54.6415H303.663V72.2267H329.844ZM329.844 54.6415C329.844 51.4668 329.36 46.9168 327.439 42.6382C325.499 38.317 320.461 31.3526 310.796 31.3526V57.3834C308.719 57.3834 306.737 56.5975 305.287 55.4001C304.052 54.3801 303.602 53.4058 303.53 53.2476C303.439 53.0437 303.496 53.1071 303.566 53.5045C303.63 53.872 303.663 54.2871 303.663 54.6415H329.844ZM310.796 31.3526C301.143 31.3526 296.067 38.2369 294.092 42.6943C292.18 47.0065 291.747 51.566 291.747 54.6415H317.929C317.929 54.2407 317.962 53.8015 318.026 53.4267C318.094 53.0189 318.15 52.9675 318.05 53.1914C317.97 53.3744 317.504 54.3827 316.236 55.4231C314.753 56.6417 312.783 57.3834 310.796 57.3834V31.3526ZM291.747 54.6415V72.2267H317.929V54.6415H291.747ZM291.747 72.2267C291.747 71.5949 292.009 69.9066 293.58 68.3453C295.15 66.7839 296.848 66.523 297.484 66.523V92.5538C302.587 92.5538 307.962 90.8582 312.092 86.7518C316.223 82.6455 317.929 77.3012 317.929 72.2267H291.747ZM297.484 66.523C297.886 66.523 299.538 66.6973 301.14 68.2627C302.764 69.8483 303.034 71.5889 303.034 72.2267H276.852C276.852 77.307 278.564 82.7033 282.795 86.8343C287.004 90.945 292.426 92.5538 297.484 92.5538V66.523ZM303.034 72.2267V54.6415H276.852V72.2267H303.034ZM303.034 54.6415C303.034 51.4668 302.55 46.9168 300.629 42.6382C298.689 38.317 293.651 31.3526 283.985 31.3526V57.3834C281.908 57.3834 279.927 56.5975 278.476 55.4001C277.242 54.3801 276.791 53.4058 276.72 53.2476C276.629 53.0437 276.686 53.1071 276.756 53.5045C276.82 53.872 276.852 54.2871 276.852 54.6415H303.034ZM283.985 31.3526C274.333 31.3526 269.257 38.2369 267.281 42.6943C265.37 47.0065 264.937 51.566 264.937 54.6415H291.119C291.119 54.2407 291.152 53.8015 291.215 53.4267C291.284 53.0189 291.34 52.9675 291.24 53.1914C291.159 53.3744 290.694 54.3827 289.426 55.4231C287.943 56.6417 285.972 57.3834 283.985 57.3834V31.3526ZM264.937 54.6415V72.2267H291.119V54.6415H264.937ZM264.937 72.2267C264.937 71.5949 265.199 69.9066 266.77 68.3453C268.34 66.7839 270.038 66.523 270.673 66.523V92.5538C275.777 92.5538 281.152 90.8582 285.282 86.7518C289.413 82.6455 291.119 77.3012 291.119 72.2267H264.937ZM270.673 66.523C271.179 66.523 272.781 66.7292 274.324 68.2223C275.903 69.7505 276.224 71.4722 276.224 72.2267H250.042C250.042 77.4242 251.852 82.801 256.061 86.8748C260.234 90.9132 265.606 92.5538 270.673 92.5538V66.523ZM354.121 60.9351V47.9197H336.818L341.523 64.4747L354.121 60.9351ZM353.748 51.6797L340.822 49.6234L338.396 64.6951H353.748V51.6797ZM370.225 51.6797V64.6951H385.94L383.1 49.3285L370.225 51.6797ZM374.601 47.9197H354.121V73.9505H374.601V47.9197ZM341.523 64.4747C342.815 69.0183 345.43 73.2115 349.478 76.2296C353.508 79.2347 358.215 80.5218 362.777 80.5218V54.4911C363.152 54.4911 364.135 54.6211 365.187 55.405C366.255 56.2019 366.636 57.1094 366.718 57.3955L341.523 64.4747ZM362.777 80.5218H377.952V54.4911H362.777V80.5218ZM377.952 80.5218C376.77 80.5218 374.671 80.0598 372.883 78.2217C371.139 76.4292 370.819 74.4921 370.819 73.615H397.001C397.001 69.0358 395.516 64.0442 391.701 60.123C387.841 56.1562 382.764 54.4911 377.952 54.4911V80.5218ZM370.819 73.615C370.819 72.5911 371.206 70.5463 373.036 68.7271C374.866 66.9078 376.922 66.523 377.952 66.523V92.5538C382.612 92.5538 387.647 91.0122 391.548 87.1336C395.45 83.2551 397.001 78.2485 397.001 73.615H370.819ZM377.952 66.523H362.777V92.5538H377.952V66.523ZM362.777 66.523C357.876 66.523 355.193 65.143 353.86 63.9184C352.667 62.8218 351.293 60.7108 351.293 56.3074H325.111C325.111 66.7126 328.671 76.2173 336.089 83.0338C343.367 89.723 352.971 92.5538 362.777 92.5538V66.523ZM351.293 56.3074C351.293 51.9741 352.698 49.334 354.231 47.8098C355.764 46.2856 358.42 44.8886 362.777 44.8886V18.8578C352.428 18.8578 342.796 22.3662 335.718 29.4032C328.64 36.4402 325.111 46.0172 325.111 56.3074H351.293ZM362.777 44.8886C367.339 44.8886 369.439 46.2327 370.335 47.1023C371.251 47.9902 372.122 49.5485 372.122 52.2351H398.304C398.304 43.5375 395.265 34.9148 388.617 28.4679C381.95 22.0026 372.832 18.8578 362.777 18.8578V44.8886ZM372.122 52.2351C372.122 51.8978 372.196 51.2235 372.58 50.4098C372.968 49.5866 373.529 48.93 374.099 48.4796C375.162 47.6388 375.665 47.9197 374.601 47.9197V73.9505C379.773 73.9505 385.582 72.6576 390.392 68.8555C395.553 64.7758 398.304 58.7663 398.304 52.2351H372.122ZM353.748 64.6951H370.225V38.6643H353.748V64.6951ZM383.1 49.3285C382.311 45.0574 380.361 40.3525 376.304 36.689C372.112 32.903 366.913 31.3526 361.847 31.3526V57.3834C361.749 57.3834 361.316 57.368 360.679 57.1443C360.018 56.912 359.321 56.5174 358.7 55.9574C357.436 54.8159 357.301 53.767 357.35 54.031L383.1 49.3285ZM361.847 31.3526C356.871 31.3526 351.671 32.8845 347.487 36.7247C343.426 40.4521 341.526 45.2458 340.822 49.6234L366.674 53.736C366.715 53.486 366.584 54.6238 365.246 55.8522C363.784 57.1935 362.261 57.3834 361.847 57.3834V31.3526Z" fill="white"/>
</g>
</svg>
