<svg width="50" height="40" viewBox="0 0 50 40" fill="none" xmlns="http://www.w3.org/2000/svg">
<path d="M6.19582 12.992C3.73185 15.456 3.73185 19.4508 6.19582 21.9148L17.1537 32.8728C19.6177 35.3368 23.6126 35.3368 26.0765 32.8728C28.5405 30.4089 28.5405 26.4139 26.0765 23.9499C26.0765 23.9499 25.4503 23.3494 25.1063 23.8656C24.7621 24.3817 23.1536 26.6307 23.1536 26.6307C21.8942 28.2248 19.7145 27.307 19.141 26.7908C18.1659 26.1026 18.1659 24.2671 19.141 22.6037C20.1161 20.9403 21.6074 19.449 21.6074 19.449L15.1187 12.992C12.6547 10.528 8.65979 10.528 6.19582 12.992Z" fill="url(#paint0_radial_293_352)"/>
<path d="M26.9917 31.8237C28.5576 29.3616 28.2659 26.0587 26.1169 23.9096L26.1161 23.9088L26.0766 23.9501C26.1161 23.9088 26.1161 23.9088 26.1161 23.9088L26.1139 23.9066C26.1139 23.9066 26.1105 23.9036 26.108 23.9013C26.103 23.8967 26.0958 23.8902 26.0864 23.882C26.0677 23.8659 26.041 23.8437 26.0077 23.8187C25.9415 23.7688 25.8484 23.707 25.743 23.6618C25.638 23.6167 25.5161 23.5861 25.3944 23.6046C25.2701 23.6235 25.1529 23.6927 25.0586 23.834C24.8872 24.0912 24.3996 24.7817 23.9541 25.4087C23.7316 25.7221 23.5198 26.0194 23.3636 26.2382C23.2856 26.3476 23.2214 26.4374 23.1768 26.5L23.1251 26.5722L23.1116 26.5911L23.1081 26.596C22.4944 27.3721 21.6572 27.5386 20.897 27.4455C20.1335 27.3521 19.4565 26.9981 19.1793 26.7485L19.1768 26.7462L19.1739 26.7443C18.7071 26.4148 18.4668 25.8053 18.4668 25.0631C18.4668 24.3219 18.7071 23.4571 19.1903 22.6327C19.6755 21.8052 20.2897 21.0193 20.7834 20.4398C21.0301 20.1502 21.2463 19.9125 21.4009 19.7473C21.4782 19.6647 21.5401 19.6001 21.5825 19.5563C21.6037 19.5345 21.6201 19.5177 21.6311 19.5064C21.6366 19.5008 21.6409 19.4966 21.6437 19.4938L21.6468 19.4906L21.6476 19.4898L21.6883 19.4491L21.6855 19.4461L34.9057 6.22585C37.3409 3.7908 41.3007 3.80217 43.736 6.2375C46.1714 8.67284 46.1827 12.6327 43.7477 15.0677L26.9917 31.8237Z" fill="url(#paint1_radial_293_352)"/>
<path d="M26.1161 23.9088L26.1169 23.9096C28.2659 26.0587 28.5576 29.3616 26.9917 31.8237L43.7477 15.0677C46.1827 12.6327 46.1714 8.67284 43.736 6.2375C41.3007 3.80217 37.3409 3.7908 34.9057 6.22585L21.6855 19.4461L21.6883 19.4491L21.6476 19.4898M26.1161 23.9088L26.0766 23.9501C26.1161 23.9088 26.1161 23.9088 26.1161 23.9088ZM26.1161 23.9088L26.1139 23.9066C26.1139 23.9066 26.1105 23.9036 26.108 23.9013C26.103 23.8967 26.0958 23.8902 26.0864 23.882C26.0677 23.8659 26.041 23.8437 26.0077 23.8187C25.9415 23.7688 25.8484 23.707 25.743 23.6618C25.638 23.6167 25.5161 23.5861 25.3944 23.6046C25.2701 23.6235 25.1529 23.6927 25.0586 23.834C24.8872 24.0912 24.3996 24.7817 23.9541 25.4087C23.7316 25.7221 23.5198 26.0193 23.3636 26.2382C23.2856 26.3476 23.2214 26.4374 23.1768 26.5L23.1251 26.5722L23.1116 26.5911L23.1081 26.596C22.4944 27.3721 21.6572 27.5386 20.897 27.4455C20.1335 27.3521 19.4565 26.9981 19.1793 26.7485L19.1768 26.7462L19.1739 26.7443C18.7071 26.4148 18.4668 25.8053 18.4668 25.0631C18.4668 24.3219 18.7071 23.4571 19.1903 22.6327C19.6755 21.8052 20.2897 21.0193 20.7834 20.4398C21.0301 20.1502 21.2463 19.9125 21.4009 19.7473C21.4782 19.6647 21.5401 19.6001 21.5825 19.5563C21.6037 19.5345 21.6201 19.5177 21.6311 19.5064C21.6366 19.5008 21.6409 19.4966 21.6437 19.4938L21.6468 19.4906L21.6476 19.4898M21.6476 19.4898L21.6449 19.4867" stroke="#FFCE70"/>
<defs>
<radialGradient id="paint0_radial_293_352" cx="0" cy="0" r="1" gradientUnits="userSpaceOnUse" gradientTransform="translate(20.9382 22.9025) rotate(132.94) scale(11.253 31.4223)">
<stop stop-color="#B8E5F8"/>
<stop offset="0.625628" stop-color="#A1D7FF"/>
<stop offset="1" stop-color="#65D1FF"/>
</radialGradient>
<radialGradient id="paint1_radial_293_352" cx="0" cy="0" r="1" gradientUnits="userSpaceOnUse" gradientTransform="translate(39.5881 8.94388) rotate(138.047) scale(28.1542 15.6876)">
<stop offset="0.15436" stop-color="#FFA056"/>
<stop offset="0.6984" stop-color="#FFB156"/>
<stop offset="0.999146" stop-color="#FFC960"/>
</radialGradient>
</defs>
</svg>
