<svg width="610" height="444" viewBox="0 0 610 444" fill="none" xmlns="http://www.w3.org/2000/svg">
<g filter="url(#filter0_d_71_44)">
<path d="M408.473 48.2881C394.94 34.7548 372.933 34.6906 359.4 48.2239L286.374 121.25L250.657 85.7082C237.089 72.1394 215.089 72.1394 201.52 85.7082C187.952 99.277 187.952 121.276 201.52 134.845L259.025 192.351C259.813 193.332 260.662 194.279 261.572 195.189C268.573 202.19 277.842 205.587 287.032 205.361C295.724 205.212 304.369 201.821 311.001 195.189C311.912 194.278 312.762 193.329 313.551 192.347L408.537 97.3609C422.071 83.8276 422.006 61.8214 408.473 48.2881Z" fill="white"/>
<path d="M255.208 201.553C264.015 210.361 275.683 214.634 287.22 214.359C298.139 214.163 309.026 209.892 317.365 201.553H317.366C318.383 200.535 319.342 199.478 320.242 198.384L414.901 103.725C431.971 86.6551 431.863 58.9504 414.837 41.9242C397.811 24.8977 370.106 24.7903 353.036 41.8599L286.358 108.538L257.021 79.3442C257.018 79.3409 257.015 79.3375 257.011 79.3342C239.927 62.2607 212.237 62.264 195.156 79.3442C178.073 96.4278 178.073 124.126 195.156 141.209L252.335 198.388C253.233 199.48 254.191 200.536 255.208 201.553Z" stroke="white" stroke-width="18"/>
</g>
<path d="M201.52 85.6024C187.952 99.1712 187.952 121.171 201.52 134.739L261.864 195.084C275.433 208.652 297.432 208.652 311.001 195.084C324.57 181.515 324.57 159.515 311.001 145.947C311.001 145.947 307.553 142.639 305.658 145.482C303.763 148.325 294.905 160.709 294.905 160.709C287.97 169.487 275.967 164.434 272.808 161.591C267.438 157.8 267.438 147.693 272.808 138.533C278.178 129.373 286.39 121.16 286.39 121.16L250.657 85.6024C237.089 72.0336 215.089 72.0336 201.52 85.6024Z" fill="url(#paint0_radial_71_44)"/>
<path d="M316.99 188.094C324.752 174.621 322.874 157.112 311.354 145.593L311.347 145.586L311.001 145.946C311.347 145.586 311.347 145.586 311.347 145.586L311.346 145.585L311.345 145.584L311.342 145.581L311.333 145.572L311.323 145.563C311.316 145.557 311.308 145.55 311.299 145.541C311.27 145.515 311.229 145.477 311.176 145.432C311.071 145.341 310.92 145.215 310.733 145.075C310.362 144.795 309.836 144.446 309.237 144.188C308.642 143.933 307.934 143.752 307.217 143.861C306.477 143.973 305.787 144.386 305.241 145.204C304.299 146.618 301.616 150.417 299.162 153.872C297.937 155.597 296.771 157.234 295.911 158.439C295.481 159.042 295.127 159.536 294.882 159.881L294.597 160.278L294.523 160.382L294.504 160.408C291.176 164.614 286.642 165.518 282.5 165.011C278.33 164.501 274.638 162.566 273.142 161.219L273.12 161.199L273.096 161.182C270.592 159.415 269.28 156.128 269.28 152.075C269.28 148.031 270.592 143.301 273.239 138.785C275.903 134.241 279.278 129.923 281.993 126.735C283.349 125.143 284.538 123.836 285.388 122.928C285.813 122.474 286.152 122.119 286.385 121.879C286.502 121.759 286.592 121.667 286.652 121.605L286.721 121.536L286.738 121.519L286.742 121.515L286.743 121.514L287.098 121.159L287.082 121.143L359.753 48.4715C373.09 35.1346 394.78 35.1964 408.119 48.5357C421.458 61.875 421.52 83.5645 408.183 96.9014L316.99 188.094Z" fill="url(#paint1_radial_71_44)"/>
<path d="M311.347 145.586L311.354 145.593C322.874 157.112 324.752 174.621 316.99 188.094L408.183 96.9014C421.52 83.5645 421.458 61.875 408.119 48.5357C394.78 35.1964 373.09 35.1346 359.753 48.4715L287.082 121.143L287.098 121.159L286.743 121.514L286.742 121.515L286.738 121.519L286.721 121.536L286.652 121.605C286.592 121.667 286.502 121.759 286.385 121.879C286.152 122.119 285.813 122.474 285.388 122.928C284.538 123.836 283.349 125.143 281.993 126.735C279.278 129.923 275.903 134.241 273.239 138.785C270.592 143.301 269.28 148.031 269.28 152.075C269.28 156.128 270.592 159.415 273.096 161.182L273.12 161.199L273.142 161.219C274.638 162.566 278.33 164.501 282.5 165.011C286.642 165.518 291.176 164.614 294.504 160.408L294.523 160.382L294.597 160.278L294.882 159.881C295.127 159.536 295.481 159.042 295.911 158.439C296.771 157.234 297.937 155.597 299.162 153.872C301.616 150.417 304.299 146.618 305.241 145.204C305.787 144.386 306.477 143.973 307.217 143.861C307.934 143.752 308.642 143.933 309.237 144.188C309.836 144.446 310.362 144.795 310.733 145.075C310.92 145.215 311.071 145.341 311.176 145.432C311.229 145.477 311.27 145.515 311.299 145.541C311.308 145.55 311.316 145.557 311.323 145.563L311.333 145.572L311.342 145.581L311.345 145.584L311.346 145.585L311.347 145.586ZM311.347 145.586L311.001 145.946C311.347 145.586 311.347 145.586 311.347 145.586Z" stroke="#FFCE70"/>
<g filter="url(#filter1_d_71_44)">
<path d="M50.3076 369.888V342.496C50.3076 324.192 61.0596 314.08 78.9796 314.08C86.0196 314.08 92.4196 315.872 97.2836 319.328C102.02 315.872 108.292 314.08 115.844 314.08C132.228 314.08 144.516 323.552 144.516 342.496V369.888C144.516 376.032 140.42 380 134.148 380C128.004 380 124.036 376.032 124.036 369.888V345.568C124.036 339.808 122.116 331.36 115.844 331.36C109.444 331.36 107.652 339.808 107.652 345.568V369.888C107.652 376.032 103.684 380 97.5396 380C91.1396 380 87.1716 376.032 87.1716 369.888V345.568C87.1716 339.808 85.2516 331.36 78.9796 331.36C72.5796 331.36 70.7876 339.808 70.7876 345.568V369.888C70.7876 376.032 66.8196 380 60.6756 380C54.4036 380 50.3076 376.032 50.3076 369.888ZM203.576 354.272H175.416C177.08 360.16 181.56 363.36 187.319 363.36H208.184C213.176 363.36 216.376 366.688 216.376 371.808C216.376 376.8 213.176 380 208.184 380H187.319C167.096 380 153.528 368.352 153.528 347.872C153.528 327.648 167.096 314.08 187.319 314.08C207.416 314.08 218.168 326.496 218.168 342.24C218.168 349.92 212.152 354.272 203.576 354.272ZM174.904 341.472H197.56C196.408 335.2 192.568 331.36 186.04 331.36C179.768 331.36 175.928 335.072 174.904 341.472ZM273.576 354.272H245.416C247.08 360.16 251.56 363.36 257.319 363.36H278.184C283.176 363.36 286.376 366.688 286.376 371.808C286.376 376.8 283.176 380 278.184 380H257.319C237.096 380 223.528 368.352 223.528 347.872C223.528 327.648 237.096 314.08 257.319 314.08C277.416 314.08 288.168 326.496 288.168 342.24C288.168 349.92 282.152 354.272 273.576 354.272ZM244.904 341.472H267.56C266.408 335.2 262.568 331.36 256.04 331.36C249.768 331.36 245.928 335.072 244.904 341.472ZM318.913 300.512V316H338.753C343.745 316 346.945 319.328 346.945 324.448C346.945 329.44 343.745 332.64 338.753 332.64H318.913V344.672C318.913 358.624 324.673 363.36 331.585 363.36H342.721C347.713 363.36 350.913 366.688 350.913 371.808C350.913 376.8 347.713 380 342.721 380H331.585C309.825 380 298.433 369.632 298.433 345.056V300.512C298.433 294.368 302.529 290.4 308.801 290.4C314.945 290.4 318.913 294.368 318.913 300.512ZM391.808 369.888V342.496C391.808 324.192 402.56 314.08 420.479 314.08C427.52 314.08 433.92 315.872 438.784 319.328C443.52 315.872 449.792 314.08 457.344 314.08C473.728 314.08 486.016 323.552 486.016 342.496V369.888C486.016 376.032 481.92 380 475.648 380C469.504 380 465.536 376.032 465.536 369.888V345.568C465.536 339.808 463.616 331.36 457.344 331.36C450.944 331.36 449.152 339.808 449.152 345.568V369.888C449.152 376.032 445.184 380 439.04 380C432.64 380 428.672 376.032 428.672 369.888V345.568C428.672 339.808 426.752 331.36 420.479 331.36C414.08 331.36 412.288 339.808 412.288 345.568V369.888C412.288 376.032 408.32 380 402.176 380C395.904 380 391.808 376.032 391.808 369.888ZM545.076 354.272H516.916C518.58 360.16 523.06 363.36 528.819 363.36H549.684C554.676 363.36 557.876 366.688 557.876 371.808C557.876 376.8 554.676 380 549.684 380H528.819C508.596 380 495.028 368.352 495.028 347.872C495.028 327.648 508.596 314.08 528.819 314.08C548.916 314.08 559.668 326.496 559.668 342.24C559.668 349.92 553.652 354.272 545.076 354.272ZM516.404 341.472H539.06C537.908 335.2 534.068 331.36 527.54 331.36C521.268 331.36 517.428 335.072 516.404 341.472Z" fill="#515D62"/>
<mask id="mask0_71_44" style="mask-type:luminance" maskUnits="userSpaceOnUse" x="32" y="272" width="546" height="126">
<path d="M578 272H32V398H578V272Z" fill="white"/>
<path d="M50.3076 369.888V342.496C50.3076 324.192 61.0596 314.08 78.9796 314.08C86.0196 314.08 92.4196 315.872 97.2836 319.328C102.02 315.872 108.292 314.08 115.844 314.08C132.228 314.08 144.516 323.552 144.516 342.496V369.888C144.516 376.032 140.42 380 134.148 380C128.004 380 124.036 376.032 124.036 369.888V345.568C124.036 339.808 122.116 331.36 115.844 331.36C109.444 331.36 107.652 339.808 107.652 345.568V369.888C107.652 376.032 103.684 380 97.5396 380C91.1396 380 87.1716 376.032 87.1716 369.888V345.568C87.1716 339.808 85.2516 331.36 78.9796 331.36C72.5796 331.36 70.7876 339.808 70.7876 345.568V369.888C70.7876 376.032 66.8196 380 60.6756 380C54.4036 380 50.3076 376.032 50.3076 369.888ZM203.576 354.272H175.416C177.08 360.16 181.56 363.36 187.319 363.36H208.184C213.176 363.36 216.376 366.688 216.376 371.808C216.376 376.8 213.176 380 208.184 380H187.319C167.096 380 153.528 368.352 153.528 347.872C153.528 327.648 167.096 314.08 187.319 314.08C207.416 314.08 218.168 326.496 218.168 342.24C218.168 349.92 212.152 354.272 203.576 354.272ZM174.904 341.472H197.56C196.408 335.2 192.568 331.36 186.04 331.36C179.768 331.36 175.928 335.072 174.904 341.472ZM273.576 354.272H245.416C247.08 360.16 251.56 363.36 257.319 363.36H278.184C283.176 363.36 286.376 366.688 286.376 371.808C286.376 376.8 283.176 380 278.184 380H257.319C237.096 380 223.528 368.352 223.528 347.872C223.528 327.648 237.096 314.08 257.319 314.08C277.416 314.08 288.168 326.496 288.168 342.24C288.168 349.92 282.152 354.272 273.576 354.272ZM244.904 341.472H267.56C266.408 335.2 262.568 331.36 256.04 331.36C249.768 331.36 245.928 335.072 244.904 341.472ZM318.913 300.512V316H338.753C343.745 316 346.945 319.328 346.945 324.448C346.945 329.44 343.745 332.64 338.753 332.64H318.913V344.672C318.913 358.624 324.673 363.36 331.585 363.36H342.721C347.713 363.36 350.913 366.688 350.913 371.808C350.913 376.8 347.713 380 342.721 380H331.585C309.825 380 298.433 369.632 298.433 345.056V300.512C298.433 294.368 302.529 290.4 308.801 290.4C314.945 290.4 318.913 294.368 318.913 300.512ZM391.808 369.888V342.496C391.808 324.192 402.56 314.08 420.479 314.08C427.52 314.08 433.92 315.872 438.784 319.328C443.52 315.872 449.792 314.08 457.344 314.08C473.728 314.08 486.016 323.552 486.016 342.496V369.888C486.016 376.032 481.92 380 475.648 380C469.504 380 465.536 376.032 465.536 369.888V345.568C465.536 339.808 463.616 331.36 457.344 331.36C450.944 331.36 449.152 339.808 449.152 345.568V369.888C449.152 376.032 445.184 380 439.04 380C432.64 380 428.672 376.032 428.672 369.888V345.568C428.672 339.808 426.752 331.36 420.479 331.36C414.08 331.36 412.288 339.808 412.288 345.568V369.888C412.288 376.032 408.32 380 402.176 380C395.904 380 391.808 376.032 391.808 369.888ZM545.076 354.272H516.916C518.58 360.16 523.06 363.36 528.819 363.36H549.684C554.676 363.36 557.876 366.688 557.876 371.808C557.876 376.8 554.676 380 549.684 380H528.819C508.596 380 495.028 368.352 495.028 347.872C495.028 327.648 508.596 314.08 528.819 314.08C548.916 314.08 559.668 326.496 559.668 342.24C559.668 349.92 553.652 354.272 545.076 354.272ZM516.404 341.472H539.06C537.908 335.2 534.068 331.36 527.54 331.36C521.268 331.36 517.428 335.072 516.404 341.472Z" fill="black"/>
</mask>
<g mask="url(#mask0_71_44)">
<path d="M97.2836 319.328L86.8579 334.001L97.4238 341.509L107.894 333.868L97.2836 319.328ZM68.3076 369.888V342.496H32.3076V369.888H68.3076ZM68.3076 342.496C68.3076 336.873 69.8821 334.906 70.5044 334.297C71.1921 333.625 73.3332 332.08 78.9796 332.08V296.08C66.706 296.08 54.5111 299.591 45.3428 308.551C36.1091 317.574 32.3076 329.815 32.3076 342.496H68.3076ZM78.9796 332.08C83.1093 332.08 85.6501 333.143 86.8579 334.001L107.709 304.655C99.1891 298.601 88.9299 296.08 78.9796 296.08V332.08ZM107.894 333.868C108.802 333.205 111.064 332.08 115.844 332.08V296.08C105.519 296.08 95.2366 298.539 86.6732 304.788L107.894 333.868ZM115.844 332.08C120.678 332.08 123.079 333.452 124.101 334.398C124.896 335.133 126.516 337.094 126.516 342.496H162.516C162.516 328.954 157.991 316.707 148.546 307.97C139.328 299.444 127.393 296.08 115.844 296.08V332.08ZM126.516 342.496V369.888H162.516V342.496H126.516ZM126.516 369.888C126.516 368.844 126.957 366.464 129.128 364.35C131.249 362.285 133.452 362 134.148 362V398C141.115 398 148.502 395.731 154.239 390.146C160.026 384.512 162.516 377.076 162.516 369.888H126.516ZM134.148 362C135.021 362 137.356 362.361 139.515 364.52C141.675 366.679 142.036 369.014 142.036 369.888H106.036C106.036 376.906 108.38 384.297 114.06 389.976C119.739 395.655 127.13 398 134.148 398V362ZM142.036 369.888V345.568H106.036V369.888H142.036ZM142.036 345.568C142.036 341.178 141.37 334.885 138.729 328.968C136.061 322.992 129.134 313.36 115.844 313.36V349.36C112.988 349.36 110.263 348.273 108.269 346.617C106.571 345.207 105.952 343.859 105.854 343.64C105.729 343.358 105.807 343.446 105.903 343.996C105.991 344.504 106.036 345.078 106.036 345.568H142.036ZM115.844 313.36C102.572 313.36 95.5926 322.881 92.8761 329.045C90.248 335.009 89.6516 341.315 89.6516 345.568H125.652C125.652 345.014 125.698 344.406 125.785 343.888C125.879 343.324 125.956 343.253 125.819 343.563C125.708 343.816 125.068 345.21 123.325 346.649C121.285 348.334 118.576 349.36 115.844 349.36V313.36ZM89.6516 345.568V369.888H125.652V345.568H89.6516ZM89.6516 369.888C89.6516 369.014 90.0124 366.679 92.1717 364.52C94.331 362.361 96.6658 362 97.5396 362V398C104.557 398 111.948 395.655 117.627 389.976C123.307 384.297 125.652 376.906 125.652 369.888H89.6516ZM97.5396 362C98.0931 362 100.364 362.241 102.568 364.406C104.801 366.599 105.172 369.006 105.172 369.888H69.1716C69.1716 376.914 71.5262 384.377 77.3429 390.09C83.1312 395.775 90.5861 398 97.5396 398V362ZM105.172 369.888V345.568H69.1716V369.888H105.172ZM105.172 345.568C105.172 341.178 104.506 334.885 101.865 328.968C99.1974 322.992 92.27 313.36 78.9796 313.36V349.36C76.1245 349.36 73.3993 348.273 71.4054 346.617C69.707 345.207 69.0882 343.859 68.9905 343.64C68.8646 343.358 68.9433 343.446 69.0387 343.996C69.1268 344.504 69.1716 345.078 69.1716 345.568H105.172ZM78.9796 313.36C65.7082 313.36 58.7286 322.881 56.012 329.045C53.384 335.009 52.7876 341.315 52.7876 345.568H88.7876C88.7876 345.014 88.8342 344.406 88.9209 343.888C89.0152 343.324 89.0916 343.253 88.9552 343.563C88.8436 343.816 88.2037 345.21 86.4615 346.649C84.4207 348.334 81.7121 349.36 78.9796 349.36V313.36ZM52.7876 345.568V369.888H88.7876V345.568H52.7876ZM52.7876 369.888C52.7876 369.014 53.1484 366.679 55.3077 364.52C57.467 362.361 59.8018 362 60.6756 362V398C67.6934 398 75.0842 395.655 80.7635 389.976C86.4428 384.297 88.7876 376.906 88.7876 369.888H52.7876ZM60.6756 362C61.3714 362 63.5739 362.285 65.6952 364.35C67.8663 366.464 68.3076 368.844 68.3076 369.888H32.3076C32.3076 377.076 34.7969 384.512 40.584 390.146C46.3213 395.731 53.7078 398 60.6756 398V362ZM175.416 354.272V336.272H151.624L158.094 359.167L175.416 354.272ZM174.904 341.472L157.13 338.628L153.795 359.472H174.904V341.472ZM197.56 341.472V359.472H219.167L215.263 338.22L197.56 341.472ZM203.576 336.272H175.416V372.272H203.576V336.272ZM158.094 359.167C159.87 365.451 163.466 371.25 169.032 375.424C174.573 379.58 181.045 381.36 187.319 381.36V345.36C187.834 345.36 189.186 345.54 190.632 346.624C192.101 347.726 192.625 348.981 192.737 349.377L158.094 359.167ZM187.319 381.36H208.184V345.36H187.319V381.36ZM208.184 381.36C206.558 381.36 203.673 380.721 201.214 378.179C198.816 375.7 198.376 373.021 198.376 371.808H234.376C234.376 365.475 232.335 358.572 227.089 353.149C221.782 347.663 214.801 345.36 208.184 345.36V381.36ZM198.376 371.808C198.376 370.392 198.908 367.564 201.424 365.048C203.94 362.532 206.768 362 208.184 362V398C214.591 398 221.515 395.868 226.879 390.504C232.243 385.14 234.376 378.216 234.376 371.808H198.376ZM208.184 362H187.319V398H208.184V362ZM187.319 362C180.58 362 176.89 360.091 175.057 358.398C173.417 356.881 171.528 353.962 171.528 347.872H135.528C135.528 362.262 140.422 375.407 150.622 384.834C160.629 394.085 173.835 398 187.319 398V362ZM171.528 347.872C171.528 341.879 173.459 338.228 175.567 336.12C177.675 334.012 181.327 332.08 187.319 332.08V296.08C173.088 296.08 159.844 300.932 150.112 310.664C140.38 320.396 135.528 333.641 135.528 347.872H171.528ZM187.319 332.08C193.591 332.08 196.478 333.939 197.711 335.142C198.97 336.369 200.168 338.525 200.168 342.24H236.168C236.168 330.211 231.989 318.287 222.848 309.37C213.681 300.429 201.144 296.08 187.319 296.08V332.08ZM200.168 342.24C200.168 341.774 200.269 340.841 200.797 339.716C201.331 338.577 202.102 337.669 202.886 337.046C204.348 335.884 205.04 336.272 203.576 336.272V372.272C210.688 372.272 218.675 370.484 225.289 365.226C232.386 359.584 236.168 351.273 236.168 342.24H200.168ZM174.904 359.472H197.56V323.472H174.904V359.472ZM215.263 338.22C214.178 332.313 211.496 325.807 205.918 320.74C200.154 315.504 193.005 313.36 186.04 313.36V349.36C185.905 349.36 185.309 349.339 184.434 349.029C183.525 348.708 182.566 348.162 181.713 347.388C179.975 345.809 179.789 344.359 179.856 344.724L215.263 338.22ZM186.04 313.36C179.198 313.36 172.048 315.479 166.294 320.79C160.71 325.944 158.098 332.574 157.13 338.628L192.677 344.316C192.733 343.97 192.553 345.544 190.713 347.242C188.703 349.097 186.609 349.36 186.04 349.36V313.36ZM245.416 354.272V336.272H221.624L228.094 359.167L245.416 354.272ZM244.904 341.472L227.13 338.628L223.795 359.472H244.904V341.472ZM267.56 341.472V359.472H289.167L285.263 338.22L267.56 341.472ZM273.576 336.272H245.416V372.272H273.576V336.272ZM228.094 359.167C229.87 365.451 233.466 371.25 239.032 375.424C244.573 379.58 251.045 381.36 257.319 381.36V345.36C257.834 345.36 259.186 345.54 260.632 346.624C262.101 347.726 262.625 348.981 262.737 349.377L228.094 359.167ZM257.319 381.36H278.184V345.36H257.319V381.36ZM278.184 381.36C276.558 381.36 273.673 380.721 271.214 378.179C268.816 375.7 268.376 373.021 268.376 371.808H304.376C304.376 365.475 302.335 358.572 297.089 353.149C291.782 347.663 284.801 345.36 278.184 345.36V381.36ZM268.376 371.808C268.376 370.392 268.908 367.564 271.424 365.048C273.94 362.532 276.768 362 278.184 362V398C284.591 398 291.515 395.868 296.879 390.504C302.243 385.14 304.376 378.216 304.376 371.808H268.376ZM278.184 362H257.319V398H278.184V362ZM257.319 362C250.58 362 246.89 360.091 245.057 358.398C243.417 356.881 241.528 353.962 241.528 347.872H205.528C205.528 362.262 210.422 375.407 220.622 384.834C230.629 394.085 243.835 398 257.319 398V362ZM241.528 347.872C241.528 341.879 243.459 338.228 245.567 336.12C247.675 334.012 251.327 332.08 257.319 332.08V296.08C243.088 296.08 229.844 300.932 220.112 310.664C210.38 320.396 205.528 333.641 205.528 347.872H241.528ZM257.319 332.08C263.591 332.08 266.478 333.939 267.711 335.142C268.97 336.369 270.168 338.525 270.168 342.24H306.168C306.168 330.211 301.989 318.287 292.848 309.37C283.681 300.429 271.144 296.08 257.319 296.08V332.08ZM270.168 342.24C270.168 341.774 270.269 340.841 270.797 339.716C271.331 338.577 272.102 337.669 272.886 337.046C274.348 335.884 275.04 336.272 273.576 336.272V372.272C280.688 372.272 288.675 370.484 295.289 365.226C302.386 359.584 306.168 351.273 306.168 342.24H270.168ZM244.904 359.472H267.56V323.472H244.904V359.472ZM285.263 338.22C284.178 332.313 281.496 325.807 275.918 320.74C270.154 315.504 263.005 313.36 256.04 313.36V349.36C255.905 349.36 255.309 349.339 254.434 349.029C253.525 348.708 252.566 348.162 251.713 347.388C249.975 345.809 249.789 344.359 249.856 344.724L285.263 338.22ZM256.04 313.36C249.198 313.36 242.048 315.479 236.294 320.79C230.71 325.944 228.098 332.574 227.13 338.628L262.677 344.316C262.733 343.97 262.553 345.544 260.713 347.242C258.703 349.097 256.609 349.36 256.04 349.36V313.36ZM318.913 316H300.913V334H318.913V316ZM318.913 332.64V314.64H300.913V332.64H318.913ZM300.913 300.512V316H336.913V300.512H300.913ZM318.913 334H338.753V298H318.913V334ZM338.753 334C337.127 334 334.242 333.361 331.783 330.819C329.385 328.34 328.945 325.661 328.945 324.448H364.945C364.945 318.115 362.904 311.212 357.658 305.789C352.351 300.303 345.37 298 338.753 298V334ZM328.945 324.448C328.945 323.032 329.477 320.204 331.993 317.688C334.509 315.172 337.337 314.64 338.753 314.64V350.64C345.16 350.64 352.084 348.508 357.448 343.144C362.812 337.78 364.945 330.856 364.945 324.448H328.945ZM338.753 314.64H318.913V350.64H338.753V314.64ZM300.913 332.64V344.672H336.913V332.64H300.913ZM300.913 344.672C300.913 353.722 302.719 363.019 308.511 370.379C314.851 378.436 323.702 381.36 331.585 381.36V345.36C331.901 345.36 332.772 345.416 333.908 345.913C335.123 346.445 336.13 347.263 336.802 348.117C337.419 348.901 337.44 349.311 337.301 348.797C337.155 348.255 336.913 346.972 336.913 344.672H300.913ZM331.585 381.36H342.721V345.36H331.585V381.36ZM342.721 381.36C341.095 381.36 338.21 380.721 335.751 378.179C333.353 375.7 332.913 373.021 332.913 371.808H368.913C368.913 365.475 366.872 358.572 361.626 353.149C356.319 347.663 349.338 345.36 342.721 345.36V381.36ZM332.913 371.808C332.913 370.392 333.445 367.564 335.961 365.048C338.477 362.532 341.305 362 342.721 362V398C349.128 398 356.052 395.868 361.416 390.504C366.78 385.14 368.913 378.216 368.913 371.808H332.913ZM342.721 362H331.585V398H342.721V362ZM331.585 362C323.266 362 320.556 360.012 319.685 359.125C318.745 358.169 316.433 354.916 316.433 345.056H280.433C280.433 359.772 283.816 373.991 294.012 384.363C304.277 394.804 318.143 398 331.585 398V362ZM316.433 345.056V300.512H280.433V345.056H316.433ZM316.433 300.512C316.433 301.556 315.991 303.936 313.82 306.05C311.699 308.115 309.496 308.4 308.801 308.4V272.4C301.833 272.4 294.446 274.669 288.709 280.254C282.922 285.888 280.433 293.324 280.433 300.512H316.433ZM308.801 308.4C307.927 308.4 305.592 308.039 303.433 305.88C301.273 303.721 300.913 301.386 300.913 300.512H336.913C336.913 293.494 334.568 286.103 328.888 280.424C323.209 274.745 315.818 272.4 308.801 272.4V308.4ZM438.784 319.328L428.358 334.001L438.924 341.509L449.394 333.868L438.784 319.328ZM409.808 369.888V342.496H373.808V369.888H409.808ZM409.808 342.496C409.808 336.873 411.382 334.906 412.004 334.297C412.692 333.625 414.833 332.08 420.479 332.08V296.08C408.206 296.08 396.011 299.591 386.843 308.551C377.609 317.574 373.808 329.815 373.808 342.496H409.808ZM420.479 332.08C424.609 332.08 427.15 333.143 428.358 334.001L449.209 304.655C440.689 298.601 430.43 296.08 420.479 296.08V332.08ZM449.394 333.868C450.302 333.205 452.564 332.08 457.344 332.08V296.08C447.019 296.08 436.737 298.539 428.173 304.788L449.394 333.868ZM457.344 332.08C462.178 332.08 464.579 333.452 465.601 334.398C466.396 335.133 468.016 337.094 468.016 342.496H504.016C504.016 328.954 499.491 316.707 490.046 307.97C480.828 299.444 468.893 296.08 457.344 296.08V332.08ZM468.016 342.496V369.888H504.016V342.496H468.016ZM468.016 369.888C468.016 368.844 468.457 366.464 470.628 364.35C472.749 362.285 474.952 362 475.648 362V398C482.615 398 490.002 395.731 495.739 390.146C501.526 384.512 504.016 377.076 504.016 369.888H468.016ZM475.648 362C476.521 362 478.856 362.361 481.015 364.52C483.175 366.679 483.536 369.014 483.536 369.888H447.536C447.536 376.906 449.88 384.297 455.56 389.976C461.239 395.655 468.63 398 475.648 398V362ZM483.536 369.888V345.568H447.536V369.888H483.536ZM483.536 345.568C483.536 341.178 482.87 334.885 480.229 328.968C477.561 322.992 470.634 313.36 457.344 313.36V349.36C454.488 349.36 451.763 348.273 449.769 346.617C448.071 345.207 447.452 343.859 447.354 343.64C447.229 343.358 447.307 343.446 447.403 343.996C447.491 344.504 447.536 345.078 447.536 345.568H483.536ZM457.344 313.36C444.072 313.36 437.092 322.881 434.376 329.045C431.748 335.009 431.152 341.315 431.152 345.568H467.152C467.152 345.014 467.198 344.406 467.285 343.888C467.379 343.324 467.456 343.253 467.319 343.563C467.208 343.816 466.568 345.21 464.825 346.649C462.785 348.334 460.076 349.36 457.344 349.36V313.36ZM431.152 345.568V369.888H467.152V345.568H431.152ZM431.152 369.888C431.152 369.014 431.512 366.679 433.672 364.52C435.831 362.361 438.166 362 439.04 362V398C446.057 398 453.448 395.655 459.127 389.976C464.807 384.297 467.152 376.906 467.152 369.888H431.152ZM439.04 362C439.593 362 441.864 362.241 444.068 364.406C446.301 366.599 446.672 369.006 446.672 369.888H410.672C410.672 376.914 413.026 384.377 418.843 390.09C424.631 395.775 432.086 398 439.04 398V362ZM446.672 369.888V345.568H410.672V369.888H446.672ZM446.672 345.568C446.672 341.178 446.006 334.885 443.365 328.968C440.697 322.992 433.77 313.36 420.479 313.36V349.36C417.624 349.36 414.899 348.273 412.905 346.617C411.207 345.207 410.588 343.859 410.49 343.64C410.365 343.358 410.443 343.446 410.539 343.996C410.627 344.504 410.672 345.078 410.672 345.568H446.672ZM420.479 313.36C407.208 313.36 400.228 322.881 397.512 329.045C394.884 335.009 394.288 341.315 394.288 345.568H430.288C430.288 345.014 430.334 344.406 430.421 343.888C430.515 343.324 430.592 343.253 430.455 343.563C430.344 343.816 429.704 345.21 427.961 346.649C425.921 348.334 423.212 349.36 420.479 349.36V313.36ZM394.288 345.568V369.888H430.288V345.568H394.288ZM394.288 369.888C394.288 369.014 394.648 366.679 396.808 364.52C398.967 362.361 401.302 362 402.176 362V398C409.193 398 416.584 395.655 422.263 389.976C427.943 384.297 430.288 376.906 430.288 369.888H394.288ZM402.176 362C402.871 362 405.074 362.285 407.195 364.35C409.366 366.464 409.808 368.844 409.808 369.888H373.808C373.808 377.076 376.297 384.512 382.084 390.146C387.821 395.731 395.208 398 402.176 398V362ZM516.916 354.272V336.272H493.124L499.594 359.167L516.916 354.272ZM516.404 341.472L498.63 338.628L495.295 359.472H516.404V341.472ZM539.06 341.472V359.472H560.667L556.763 338.22L539.06 341.472ZM545.076 336.272H516.916V372.272H545.076V336.272ZM499.594 359.167C501.37 365.451 504.966 371.25 510.532 375.424C516.073 379.58 522.545 381.36 528.819 381.36V345.36C529.334 345.36 530.686 345.54 532.132 346.624C533.601 347.726 534.125 348.981 534.237 349.377L499.594 359.167ZM528.819 381.36H549.684V345.36H528.819V381.36ZM549.684 381.36C548.058 381.36 545.173 380.721 542.714 378.179C540.316 375.7 539.876 373.021 539.876 371.808H575.876C575.876 365.475 573.835 358.572 568.589 353.149C563.282 347.663 556.301 345.36 549.684 345.36V381.36ZM539.876 371.808C539.876 370.392 540.408 367.564 542.924 365.048C545.44 362.532 548.268 362 549.684 362V398C556.091 398 563.015 395.868 568.379 390.504C573.743 385.14 575.876 378.216 575.876 371.808H539.876ZM549.684 362H528.819V398H549.684V362ZM528.819 362C522.08 362 518.39 360.091 516.557 358.398C514.917 356.881 513.028 353.962 513.028 347.872H477.028C477.028 362.262 481.922 375.407 492.122 384.834C502.129 394.085 515.335 398 528.819 398V362ZM513.028 347.872C513.028 341.879 514.959 338.228 517.067 336.12C519.175 334.012 522.827 332.08 528.819 332.08V296.08C514.588 296.08 501.344 300.932 491.612 310.664C481.88 320.396 477.028 333.641 477.028 347.872H513.028ZM528.819 332.08C535.091 332.08 537.978 333.939 539.211 335.142C540.47 336.369 541.668 338.525 541.668 342.24H577.668C577.668 330.211 573.489 318.287 564.348 309.37C555.181 300.429 542.644 296.08 528.819 296.08V332.08ZM541.668 342.24C541.668 341.774 541.769 340.841 542.297 339.716C542.831 338.577 543.602 337.669 544.386 337.046C545.848 335.884 546.54 336.272 545.076 336.272V372.272C552.188 372.272 560.175 370.484 566.789 365.226C573.886 359.584 577.668 351.273 577.668 342.24H541.668ZM516.404 359.472H539.06V323.472H516.404V359.472ZM556.763 338.22C555.678 332.313 552.996 325.807 547.418 320.74C541.654 315.504 534.505 313.36 527.54 313.36V349.36C527.405 349.36 526.809 349.339 525.934 349.029C525.025 348.708 524.066 348.162 523.213 347.388C521.475 345.809 521.289 344.359 521.356 344.724L556.763 338.22ZM527.54 313.36C520.698 313.36 513.548 315.479 507.794 320.79C502.21 325.944 499.598 332.574 498.63 338.628L534.177 344.316C534.233 343.97 534.053 345.544 532.213 347.242C530.203 349.097 528.109 349.36 527.54 349.36V313.36Z" fill="white"/>
</g>
</g>
<defs>
<filter id="filter0_d_71_44" x="153.344" y="0.105957" width="303.312" height="243.266" filterUnits="userSpaceOnUse" color-interpolation-filters="sRGB">
<feFlood flood-opacity="0" result="BackgroundImageFix"/>
<feColorMatrix in="SourceAlpha" type="matrix" values="0 0 0 0 0 0 0 0 0 0 0 0 0 0 0 0 0 0 127 0" result="hardAlpha"/>
<feOffset/>
<feGaussianBlur stdDeviation="10"/>
<feComposite in2="hardAlpha" operator="out"/>
<feColorMatrix type="matrix" values="0 0 0 0 0.454215 0 0 0 0 0.454215 0 0 0 0 0.454215 0 0 0 0.33 0"/>
<feBlend mode="normal" in2="BackgroundImageFix" result="effect1_dropShadow_71_44"/>
<feBlend mode="normal" in="SourceGraphic" in2="effect1_dropShadow_71_44" result="shape"/>
</filter>
<filter id="filter1_d_71_44" x="12.3076" y="252.4" width="585.36" height="165.6" filterUnits="userSpaceOnUse" color-interpolation-filters="sRGB">
<feFlood flood-opacity="0" result="BackgroundImageFix"/>
<feColorMatrix in="SourceAlpha" type="matrix" values="0 0 0 0 0 0 0 0 0 0 0 0 0 0 0 0 0 0 127 0" result="hardAlpha"/>
<feOffset/>
<feGaussianBlur stdDeviation="10"/>
<feComposite in2="hardAlpha" operator="out"/>
<feColorMatrix type="matrix" values="0 0 0 0 0 0 0 0 0 0 0 0 0 0 0 0 0 0 0.25 0"/>
<feBlend mode="normal" in2="BackgroundImageFix" result="effect1_dropShadow_71_44"/>
<feBlend mode="normal" in="SourceGraphic" in2="effect1_dropShadow_71_44" result="shape"/>
</filter>
<radialGradient id="paint0_radial_71_44" cx="0" cy="0" r="1" gradientUnits="userSpaceOnUse" gradientTransform="translate(282.705 140.178) rotate(132.94) scale(61.9691 173.039)">
<stop stop-color="#B8E5F8"/>
<stop offset="0.625628" stop-color="#A1D7FF"/>
<stop offset="1" stop-color="#65D1FF"/>
</radialGradient>
<radialGradient id="paint1_radial_71_44" cx="0" cy="0" r="1" gradientUnits="userSpaceOnUse" gradientTransform="translate(385.408 63.3086) rotate(138.047) scale(155.042 86.3903)">
<stop offset="0.15436" stop-color="#FFA056"/>
<stop offset="0.6984" stop-color="#FFB156"/>
<stop offset="0.999146" stop-color="#FFC960"/>
</radialGradient>
</defs>
</svg>
