<svg width="30" height="30" viewBox="0 0 30 30" fill="none" xmlns="http://www.w3.org/2000/svg">
<path d="M2.23839 10.754C0.587205 12.4052 0.587205 15.0823 2.23839 16.7334L9.58158 24.0767C11.2328 25.7279 13.9099 25.7279 15.5611 24.0767C17.2122 22.4256 17.2122 19.7484 15.5611 18.0972C15.5611 18.0972 15.1414 17.6948 14.9109 18.0407C14.6802 18.3866 13.6023 19.8937 13.6023 19.8937C12.7583 20.9619 11.2977 20.3469 10.9133 20.001C10.2599 19.5398 10.2599 18.3098 10.9133 17.1951C11.5668 16.0804 12.5662 15.081 12.5662 15.081L8.21785 10.754C6.56668 9.10283 3.88957 9.10283 2.23839 10.754Z" fill="url(#paint0_radial_470_816)"/>
<path d="M16.1747 23.3739C17.224 21.724 17.0286 19.5106 15.5885 18.0705L15.5614 18.0976C15.588 18.0699 15.5885 18.0705 15.5885 18.0705L15.5864 18.0685C15.5864 18.0685 15.5842 18.0664 15.5825 18.0649C15.5791 18.0618 15.5743 18.0574 15.568 18.052C15.5555 18.0412 15.5376 18.0263 15.5153 18.0095C15.4709 17.9761 15.4085 17.9347 15.3379 17.9044C15.2675 17.8742 15.1859 17.8536 15.1043 17.866C15.021 17.8787 14.9424 17.9251 14.8793 18.0198C14.7644 18.1921 14.4376 18.6549 14.1391 19.075C13.99 19.2851 13.8481 19.4843 13.7434 19.6309C13.6911 19.7042 13.6481 19.7644 13.6182 19.8064L13.5835 19.8547L13.5745 19.8674L13.5722 19.8707C13.1609 20.3908 12.5999 20.5023 12.0905 20.44C11.5788 20.3774 11.1251 20.1401 10.9394 19.9729L10.9377 19.9714L10.9358 19.9701C10.6229 19.7492 10.4619 19.3408 10.4619 18.8434C10.4619 18.3467 10.6229 17.7672 10.9467 17.2148C11.2719 16.6602 11.6835 16.1336 12.0143 15.7452C12.1796 15.5512 12.3246 15.3919 12.4281 15.2811C12.4799 15.2258 12.5214 15.1825 12.5498 15.1532C12.564 15.1385 12.575 15.1273 12.5824 15.1197C12.5861 15.116 12.5889 15.1131 12.5908 15.1113L12.5929 15.1092L12.6207 15.0813L12.6188 15.0793L21.4781 6.22002C23.11 4.58822 25.7636 4.59584 27.3956 6.22783C29.0276 7.85982 29.0352 10.5135 27.4034 12.1452L16.1747 23.3739Z" fill="url(#paint1_radial_470_816)"/>
<defs>
<radialGradient id="paint0_radial_470_816" cx="0" cy="0" r="1" gradientUnits="userSpaceOnUse" gradientTransform="translate(12.1177 17.3953) rotate(132.94) scale(7.54099 21.0571)">
<stop stop-color="#B8E5F8"/>
<stop offset="0.625628" stop-color="#A1D7FF"/>
<stop offset="1" stop-color="#65D1FF"/>
</radialGradient>
<radialGradient id="paint1_radial_470_816" cx="0" cy="0" r="1" gradientUnits="userSpaceOnUse" gradientTransform="translate(24.6159 8.04146) rotate(138.047) scale(18.867 10.5128)">
<stop offset="0.15436" stop-color="#FFA056"/>
<stop offset="0.6984" stop-color="#FFB156"/>
<stop offset="0.999146" stop-color="#FFC960"/>
</radialGradient>
</defs>
</svg>
