<svg width="30" height="30" viewBox="0 0 30 30" fill="none" xmlns="http://www.w3.org/2000/svg">
<g clip-path="url(#clip0_56_5441)">
<path fill-rule="evenodd" clip-rule="evenodd" d="M8.75 1.25C8.05965 1.25 7.5 1.80965 7.5 2.5V3.75H6.25C4.17894 3.75 2.5 5.42894 2.5 7.5V25C2.5 27.0711 4.17894 28.75 6.25 28.75H16.3763C15.6439 28.0324 15.0371 27.187 14.592 26.25H6.25C5.55965 26.25 5 25.6904 5 25V13.75H25V14.1124C25.903 14.3811 26.745 14.7917 27.5 15.3184V7.5C27.5 5.42894 25.8211 3.75 23.75 3.75H22.5V2.5C22.5 1.80965 21.9404 1.25 21.25 1.25C20.5596 1.25 20 1.80965 20 2.5V3.75H10V2.5C10 1.80965 9.44035 1.25 8.75 1.25ZM20 7.5V6.25H10V7.5C10 8.19035 9.44035 8.75 8.75 8.75C8.05965 8.75 7.5 8.19035 7.5 7.5V6.25H6.25C5.55965 6.25 5 6.80965 5 7.5V11.25H25V7.5C25 6.80965 24.4404 6.25 23.75 6.25H22.5V7.5C22.5 8.19035 21.9404 8.75 21.25 8.75C20.5596 8.75 20 8.19035 20 7.5Z" fill="white"/>
<path d="M21.25 20C21.25 19.3096 21.8096 18.75 22.5 18.75C23.1904 18.75 23.75 19.3096 23.75 20V21.25H25C25.6904 21.25 26.25 21.8096 26.25 22.5C26.25 23.1904 25.6904 23.75 25 23.75H23.75V25C23.75 25.6904 23.1904 26.25 22.5 26.25C21.8096 26.25 21.25 25.6904 21.25 25V23.75H20C19.3096 23.75 18.75 23.1904 18.75 22.5C18.75 21.8096 19.3096 21.25 20 21.25H21.25V20Z" fill="white"/>
<path fill-rule="evenodd" clip-rule="evenodd" d="M30 22.5C30 26.6421 26.6421 30 22.5 30C18.3579 30 15 26.6421 15 22.5C15 18.3579 18.3579 15 22.5 15C26.6421 15 30 18.3579 30 22.5ZM17.4774 22.5C17.4774 25.2739 19.7261 27.5226 22.5 27.5226C25.2739 27.5226 27.5226 25.2739 27.5226 22.5C27.5226 19.7261 25.2739 17.4774 22.5 17.4774C19.7261 17.4774 17.4774 19.7261 17.4774 22.5Z" fill="white"/>
</g>
<defs>
<clipPath id="clip0_56_5441">
<rect width="30" height="30" fill="white"/>
</clipPath>
</defs>
</svg>
