<svg width="30" height="30" viewBox="0 0 30 30" fill="none" xmlns="http://www.w3.org/2000/svg">
<path fill-rule="evenodd" clip-rule="evenodd" d="M21.4122 6.23554C23.0609 4.58815 25.734 4.58815 27.3827 6.23555C28.1583 7.01055 28.569 8.01208 28.6149 9.027C28.6711 10.1715 28.2638 11.334 27.3906 12.2065L15.8491 23.7387C15.7533 23.858 15.65 23.9732 15.5393 24.0838C14.7334 24.889 13.6829 25.3007 12.6269 25.3188C11.5102 25.3462 10.3839 24.9339 9.53323 24.0838C9.4227 23.9734 9.31957 23.8583 9.22383 23.7392L2.23654 16.7575C1.4103 15.9319 0.998128 14.8493 1.00001 13.7672C0.998556 12.6857 1.41073 11.6038 2.23654 10.7787C3.88525 9.13127 6.55833 9.13127 8.20704 10.7787L12.5469 15.0938L21.4122 6.23554Z" fill="#D9D9D9"/>
</svg>
