<svg width="14" height="17" viewBox="0 0 14 17" fill="none" xmlns="http://www.w3.org/2000/svg">
<path d="M12.2016 5.43688C12.079 5.42206 11.9202 5.46897 11.8143 5.55066C11.7467 5.60283 11.7065 5.6662 11.6982 5.73365L10.3806 15.9826H3.26006L1.94261 5.73389C1.93408 5.6655 1.89322 5.60143 1.82442 5.54856C1.71938 5.46792 1.56093 5.42194 1.43919 5.43688C1.34765 5.44773 1.2657 5.49325 1.20862 5.5649C1.15154 5.63667 1.1262 5.72595 1.13733 5.81674L2.49233 16.4812C2.51341 16.652 2.66096 16.7807 2.83552 16.7807H10.8048C10.9797 16.7807 11.1273 16.652 11.148 16.4816L12.503 5.81604C12.514 5.72572 12.4886 5.63656 12.4318 5.56502C12.3747 5.49325 12.2929 5.44773 12.2014 5.43688H12.2016Z" fill="#F2994A"/>
<path d="M11.6931 2.36743H1.94672C1.16011 2.36743 0.52002 2.97984 0.52002 3.73255V4.80295C0.52002 4.98191 0.672118 5.12743 0.859164 5.12743H12.7809C12.9678 5.12743 13.12 4.98191 13.12 4.80295V3.73255C13.12 2.97984 12.4798 2.36743 11.6931 2.36743ZM1.3143 3.73244C1.3143 3.3422 1.53896 3.12725 1.94672 3.12725H11.6932C12.1011 3.12725 12.3256 3.3422 12.3256 3.73244V4.36739H1.3143V3.73244Z" fill="#F2994A"/>
<path d="M4.42115 14.0204C4.42913 14.0204 4.43733 14.02 4.44388 14.0194C4.51648 14.0132 4.60557 13.9768 4.67623 13.9249C4.77689 13.8509 4.8287 13.755 4.82194 13.6548L4.39514 7.28123C4.39063 7.21372 4.35919 7.14994 4.30431 7.09675C4.22064 7.01551 4.07431 6.95882 3.97191 6.96802C3.89941 6.9743 3.81043 7.01062 3.73957 7.06253C3.6389 7.13655 3.58709 7.23246 3.59385 7.33279L4.02066 13.7062C4.03458 13.9125 4.28874 14.0204 4.42115 14.0204Z" fill="#F2994A"/>
<path d="M7.28084 13.6805V7.30703C7.28084 7.08704 6.9763 6.96704 6.81992 6.96704C6.66354 6.96704 6.35889 7.08704 6.35889 7.30703V13.6805C6.35889 13.9005 6.66342 14.0204 6.81992 14.0204C6.97642 14.0204 7.28084 13.9004 7.28084 13.6805Z" fill="#F2994A"/>
<path d="M8.98226 14.0191L9.01195 14.0204C9.17747 14.0204 9.49518 13.9125 9.51259 13.7062L10.0461 7.33302C10.0544 7.23385 9.99069 7.13865 9.86678 7.06474C9.77833 7.01225 9.66325 6.97442 9.5748 6.96837C9.445 6.95766 9.26553 7.01271 9.15775 7.09663C9.08927 7.14994 9.0501 7.21383 9.04447 7.28134L8.51094 13.6548C8.50569 13.7208 8.53065 13.7834 8.58505 13.841C8.68413 13.9459 8.86372 14.0109 8.98226 14.0191Z" fill="#F2994A"/>
<path d="M4.55931 2.36737C4.71945 2.36737 5.03105 2.23938 5.03105 2.00475C5.03105 1.45443 5.4531 1.06996 6.05717 1.06996H7.27592C7.87999 1.06996 8.30204 1.45443 8.30204 2.00475C8.30204 2.23938 8.61364 2.36737 8.77378 2.36737C8.96748 2.36737 9.12508 2.20474 9.12508 2.00475C9.12508 1.02105 8.34956 0.220703 7.39623 0.220703H5.93686C4.98353 0.220703 4.20801 1.02092 4.20801 2.00475C4.20801 2.20474 4.36561 2.36737 4.55931 2.36737Z" fill="#F2994A"/>
</svg>
